<?xml version="1.0" standalone="no"?>
<!DOCTYPE svg PUBLIC "-//W3C//DTD SVG 20010904//EN"
 "http://www.w3.org/TR/2001/REC-SVG-20010904/DTD/svg10.dtd">
<svg version="1.0" xmlns="http://www.w3.org/2000/svg"
 width="1080.000000pt" height="1080.000000pt" viewBox="0 0 1080.000000 1080.000000"
 preserveAspectRatio="xMidYMid meet">
<metadata>
Created by potrace 1.14, written by Peter Selinger 2001-2017
</metadata>
<g transform="translate(0.000000,1080.000000) scale(0.100000,-0.100000)"
fill="#000000" stroke="none">
<path d="M4952 8442 c-34 -3 -43 -7 -40 -20 2 -12 15 -18 41 -20 l37 -3 0
-279 0 -280 -27 -6 c-55 -12 -63 -16 -63 -28 0 -10 37 -13 165 -14 155 0 165
1 165 19 0 11 -6 19 -12 19 -7 0 -30 5 -50 11 l-38 10 0 124 0 125 39 0 c50 0
58 -10 141 -179 l64 -131 113 0 c94 0 111 2 107 15 -3 8 -21 19 -40 25 -28 10
-44 29 -99 118 -35 59 -74 121 -85 139 l-21 31 43 24 c126 69 118 218 -17 283
-54 27 -58 27 -217 24 -90 -2 -182 -5 -206 -7z m330 -71 c28 -25 32 -35 36
-92 4 -61 2 -65 -27 -94 -27 -25 -41 -30 -96 -33 l-65 -4 0 126 0 126 60 0
c52 0 64 -4 92 -29z"/>
<path d="M6190 8380 c0 -14 9 -21 35 -26 19 -3 38 -10 41 -15 4 -7 -34 -314
-62 -502 -6 -41 -8 -42 -66 -52 -64 -10 -47 -33 30 -39 37 -3 106 -13 153 -21
108 -19 109 -19 109 4 0 14 -13 24 -45 37 -51 19 -50 14 -35 135 16 129 17
129 48 129 53 0 67 -22 122 -183 l51 -153 87 -12 c48 -7 97 -15 110 -18 35
-10 27 21 -12 45 -28 17 -44 45 -97 163 -35 77 -65 144 -67 148 -1 4 11 10 28
14 71 14 120 73 120 146 0 51 -19 88 -64 128 -45 39 -84 50 -226 62 -63 6
-145 15 -182 20 -37 6 -69 10 -72 10 -3 0 -6 -9 -6 -20z m330 -70 c39 -21 61
-57 62 -103 1 -95 -39 -137 -131 -137 -82 0 -79 -6 -60 133 10 67 18 124 18
126 1 6 95 -10 111 -19z"/>
<path d="M3950 8364 c-85 -13 -203 -29 -261 -35 -88 -10 -106 -15 -102 -28 3
-12 17 -16 53 -17 28 0 52 -3 55 -6 7 -6 60 -371 71 -480 l6 -67 -56 -16 c-34
-10 -56 -22 -56 -31 0 -18 -3 -18 149 6 70 11 202 27 292 35 229 21 209 12
209 98 0 39 3 83 7 95 5 20 3 23 -17 20 -17 -2 -27 -14 -37 -43 -23 -66 -66
-102 -144 -120 -84 -19 -198 -20 -204 -2 -11 30 -34 232 -28 238 5 4 48 12 97
19 100 13 119 5 131 -52 7 -28 29 -47 41 -35 6 6 -23 247 -30 255 -3 2 -12 2
-21 -1 -10 -4 -15 -19 -15 -45 0 -51 -20 -67 -101 -81 -123 -21 -113 -28 -131
107 -9 64 -13 120 -9 124 10 11 137 28 213 28 l68 0 37 -50 c54 -72 67 -67 59
21 -3 39 -9 75 -12 80 -9 15 -99 9 -264 -17z"/>
<path d="M2932 8206 c-13 -29 2 -24 -277 -96 -192 -49 -225 -55 -240 -43 -11
7 -27 13 -37 13 -16 0 -18 -10 -18 -85 0 -47 0 -88 -1 -92 0 -5 7 -9 15 -11
10 -2 24 15 41 48 18 36 35 55 58 64 46 19 137 39 144 32 11 -11 114 -400 120
-453 6 -50 5 -51 -28 -68 -47 -24 -69 -45 -63 -60 4 -10 21 -7 77 10 40 13
117 32 171 44 55 11 101 23 104 25 2 3 2 13 -2 22 -5 14 -15 16 -51 10 -41 -5
-47 -3 -55 17 -22 52 -131 490 -123 497 4 4 37 15 73 24 l65 16 41 -45 c69
-77 84 -59 52 65 -24 95 -44 115 -66 66z"/>
<path d="M7540 7883 c-100 -142 -190 -264 -198 -270 -9 -7 -35 -13 -59 -13
-56 0 -60 -26 -5 -35 20 -3 73 -16 117 -29 58 -17 82 -21 87 -12 12 17 9 26
-6 26 -8 0 -27 11 -43 24 l-27 24 47 71 c30 45 54 71 65 70 9 0 53 -10 97 -22
l80 -22 12 -84 c7 -47 10 -88 7 -93 -3 -4 -25 -8 -49 -8 -29 0 -45 -5 -49 -15
-7 -18 -7 -18 97 -40 43 -9 109 -27 147 -40 60 -20 69 -21 74 -8 6 14 -18 42
-36 43 -19 1 -36 35 -42 87 -17 148 -79 579 -85 584 -3 4 -16 10 -27 13 -19 6
-44 -24 -204 -251z m139 -37 c7 -48 10 -90 7 -93 -4 -4 -84 15 -134 32 -9 3 6
32 45 89 33 47 61 79 64 72 4 -6 12 -51 18 -100z"/>
<path d="M3835 7523 c-16 -8 -61 -46 -100 -83 -77 -73 -114 -96 -220 -130
-135 -43 -250 -108 -338 -189 -45 -42 -121 -109 -169 -149 -48 -39 -108 -97
-134 -127 l-48 -55 -42 41 c-57 56 -99 64 -169 34 -29 -13 -79 -31 -111 -40
-33 -10 -75 -28 -95 -41 -31 -21 -53 -25 -171 -33 -187 -13 -226 -32 -319
-155 -50 -67 -101 -104 -199 -141 -62 -24 -77 -36 -181 -147 -100 -107 -124
-139 -66 -89 16 13 19 13 27 1 8 -12 10 -12 10 3 0 10 16 34 35 53 19 18 35
38 35 44 0 5 7 10 15 10 8 0 15 7 15 15 0 18 16 20 23 3 3 -7 6 -1 6 14 1 37
19 45 24 11 4 -26 4 -26 6 5 1 34 17 44 24 15 4 -14 5 -12 6 5 0 12 6 22 12
22 7 0 10 -15 7 -40 -2 -22 0 -40 4 -40 5 0 8 21 9 48 0 35 3 42 9 27 8 -19 9
-19 9 3 1 26 21 30 22 5 0 -15 2 -15 8 2 l8 20 5 -20 c4 -15 6 -13 7 8 0 16 5
26 10 23 5 -3 12 2 16 12 7 15 9 14 15 -8 l8 -25 1 27 c1 31 19 47 32 27 6
-10 9 -8 9 9 0 12 4 22 9 22 5 0 13 10 17 22 6 21 7 21 22 2 12 -16 14 -16 9
-1 -4 9 -3 25 1 35 5 12 9 4 13 -28 l6 -45 1 53 c1 33 6 51 12 47 6 -4 10 6
10 22 1 27 1 27 15 9 15 -19 15 -19 17 5 1 13 4 -1 8 -31 l7 -55 1 63 c2 59
15 83 25 45 3 -11 5 -7 6 10 1 36 18 35 26 -3 9 -41 25 -38 25 5 0 50 15 43
27 -12 l10 -48 2 52 c1 60 15 76 29 36 9 -25 10 -26 11 -5 1 12 5 22 11 22 8
0 12 -13 23 -90 3 -14 5 -2 6 27 1 51 20 87 22 41 0 -23 0 -23 11 2 9 21 12
22 15 8 3 -10 8 -18 13 -18 5 0 11 -10 13 -22 3 -17 5 -14 6 10 0 17 5 32 11
32 5 0 9 -3 8 -7 0 -5 2 -16 7 -26 4 -10 1 -27 -9 -42 -9 -13 -16 -31 -16 -40
0 -32 -19 -13 -23 23 -2 23 -4 12 -5 -29 -2 -72 -24 -114 -59 -114 -16 0 -19
11 -24 90 l-5 90 -3 -120 c-2 -78 -6 -111 -11 -95 -5 14 -9 19 -10 10 -2 -8
-6 1 -10 20 -7 31 -8 28 -9 -23 -1 -36 -5 -56 -11 -52 -6 4 -14 -8 -18 -27 -6
-28 -8 -21 -13 42 l-5 75 -2 -77 c-1 -43 -6 -78 -11 -78 -10 0 -20 56 -22 125
-1 34 -4 20 -9 -43 -5 -51 -11 -100 -15 -110 -7 -15 -8 -15 -15 3 -8 19 -9 19
-9 -3 -1 -13 -5 -21 -10 -18 -5 3 -12 -2 -16 -12 -7 -15 -9 -14 -15 8 l-8 25
-1 -28 c-1 -24 -4 -27 -21 -22 -14 4 -22 1 -26 -10 -5 -12 -9 -13 -14 -5 -5 9
-10 5 -16 -11 -8 -23 -9 -22 -15 11 l-6 35 -2 -42 c-1 -46 -17 -66 -24 -31 -3
14 -5 8 -6 -15 -1 -49 -20 -39 -22 11 -2 33 -2 34 -6 7 -7 -58 -60 -136 -75
-113 -5 8 -8 1 -8 -19 0 -37 -19 -56 -21 -21 -1 14 -4 8 -10 -17 -12 -51 -29
-69 -29 -31 0 15 -4 25 -10 21 -5 -3 -10 -21 -10 -39 0 -19 -7 -39 -15 -46 -8
-7 -15 -9 -15 -4 0 5 -9 -6 -20 -23 -11 -18 -23 -33 -27 -33 -5 0 -51 44 -103
98 -52 54 -72 73 -45 43 28 -31 70 -77 94 -103 42 -45 44 -48 28 -66 -26 -28
-22 -47 5 -28 12 9 26 16 30 16 4 0 209 -219 455 -487 933 -1016 1374 -1497
1568 -1709 195 -214 754 -820 1323 -1436 156 -170 288 -308 292 -308 5 0 274
287 597 638 323 350 803 870 1066 1155 263 285 475 521 473 526 -3 5 3 20 14
34 26 33 25 37 -5 37 -25 0 -25 1 -10 30 24 46 18 56 -16 24 -21 -19 -33 -25
-36 -16 -9 24 -21 11 -41 -46 -21 -57 -74 -122 -85 -105 -4 5 -7 44 -9 87 -2
60 0 79 12 86 11 7 16 5 18 -10 4 -24 20 -26 28 -5 4 10 13 13 25 10 31 -10
23 21 -13 50 l-33 27 35 -5 c54 -7 65 1 39 29 -21 22 -21 25 -6 42 27 30 20
35 -18 13 -32 -18 -35 -19 -35 -3 -1 22 -29 -25 -30 -49 0 -9 -7 -19 -15 -23
-27 -10 -17 47 20 117 27 50 32 67 21 67 -9 0 -20 -9 -26 -20 -18 -34 -30 -23
-30 28 0 26 -5 54 -10 62 -7 10 -10 -9 -10 -62 0 -43 -3 -78 -7 -78 -5 0 -18
15 -30 33 -22 31 -23 31 -23 7 0 -14 12 -43 25 -65 17 -27 25 -55 25 -84 0
-42 -1 -43 -15 -25 -8 10 -15 33 -15 49 0 17 -5 37 -10 45 -8 13 -11 11 -16
-7 -8 -27 -12 -28 -36 -6 -29 26 -34 6 -10 -40 25 -47 27 -64 10 -69 -19 -7 3
-30 23 -25 15 4 19 0 19 -19 0 -27 -3 -28 -31 -14 -15 9 -19 7 -19 -6 0 -10 8
-26 17 -36 15 -17 15 -19 -3 -33 -20 -15 -17 -16 -83 33 l-31 23 0 -26 c0 -14
7 -28 15 -31 8 -4 15 -10 15 -15 0 -5 -7 -9 -15 -9 -8 0 -15 -7 -15 -15 0 -8
6 -15 14 -15 8 0 21 -14 30 -30 14 -29 14 -30 -10 -36 -35 -9 -28 -40 8 -36
15 1 29 -2 33 -8 3 -5 18 -7 32 -4 23 6 24 5 12 -14 -16 -25 -5 -40 16 -22 13
10 15 9 15 -9 0 -25 13 -27 34 -6 20 21 26 19 26 -9 0 -45 -83 -51 -142 -10
-42 30 -62 26 -33 -6 10 -11 15 -20 11 -20 -15 0 -62 29 -80 49 -24 27 -46 27
-46 1 0 -15 -7 -20 -29 -20 -17 0 -33 -5 -36 -10 -12 -19 17 -40 53 -40 28 0
33 -3 24 -12 -16 -16 -15 -38 1 -38 8 0 22 9 32 20 10 11 23 20 28 20 6 0 3
-8 -6 -18 -14 -15 -14 -62 -1 -62 7 0 48 24 67 39 24 20 22 -2 -3 -24 -11 -10
-20 -22 -20 -28 0 -5 9 -7 20 -4 22 6 27 -12 9 -30 -9 -9 -18 -7 -37 5 -25 16
-25 16 -20 -6 5 -17 2 -22 -12 -22 -11 0 -22 5 -25 10 -9 15 -25 12 -25 -3 0
-10 -18 -14 -70 -15 -62 -1 -69 0 -63 16 5 12 -1 10 -21 -8 -23 -21 -29 -22
-37 -10 -5 8 -7 23 -5 33 3 12 -7 7 -35 -17 -33 -31 -42 -34 -64 -26 -51 19
-84 40 -104 66 -27 35 -16 52 16 23 18 -18 26 -20 32 -11 6 10 11 10 21 -3 19
-23 30 -18 30 15 0 35 19 40 38 10 12 -20 42 -28 42 -11 0 5 -7 14 -15 21 -8
7 -15 19 -15 28 0 12 5 11 20 -6 24 -25 61 -32 41 -8 -10 12 -8 17 8 25 11 7
18 17 15 25 -4 10 0 13 13 10 22 -6 48 19 38 36 -3 5 -17 10 -31 10 -13 0 -24
5 -24 10 0 15 -32 12 -54 -5 -21 -16 -37 -19 -35 -7 3 18 -14 51 -23 46 -6 -4
-14 -1 -18 6 -6 10 -16 7 -40 -13 -35 -30 -43 -32 -71 -17 -15 8 -17 15 -9 29
12 23 4 31 -30 31 -29 0 -50 16 -50 40 1 12 2 12 11 -2 12 -22 29 -23 29 -3 0
21 13 19 28 -5 17 -27 32 -25 32 4 0 38 14 38 35 0 20 -37 45 -45 45 -15 0 23
16 37 23 19 3 -10 12 -9 40 4 21 10 37 21 37 26 0 11 -40 45 -75 62 -22 11
-29 21 -27 38 4 27 -23 30 -50 5 -10 -9 -21 -13 -25 -9 -5 4 0 12 10 17 9 6
17 16 17 24 0 8 9 19 20 25 29 15 25 28 -12 38 -18 4 -32 11 -30 15 1 4 2 14
2 23 0 13 3 14 14 5 10 -9 20 -5 45 18 37 35 38 39 6 51 l-25 9 20 36 c25 45
25 55 -1 55 -16 0 -19 4 -14 18 4 9 10 28 12 42 4 24 3 23 -25 -9 -24 -29 -30
-31 -35 -17 -10 26 -25 10 -42 -46 -14 -49 -58 -118 -74 -118 -14 0 -23 171
-10 186 16 20 29 17 29 -6 0 -23 15 -27 24 -5 3 8 12 12 20 9 28 -11 27 17 -3
47 -17 17 -31 32 -31 35 0 2 17 1 39 -2 47 -8 60 8 26 30 -14 9 -23 21 -20 26
4 6 -9 10 -29 10 -29 0 -37 -4 -42 -25 -3 -13 -13 -30 -22 -37 -13 -12 -14 -9
-8 25 6 33 5 37 -14 37 -18 0 -20 -6 -20 -52 0 -60 -7 -59 -18 3 -7 42 -8 43
-50 46 -23 1 -42 0 -42 -3 0 -2 10 -24 21 -46 14 -28 18 -43 10 -46 -6 -2 -11
-13 -11 -24 0 -15 5 -19 20 -15 16 4 20 0 20 -19 0 -26 -10 -30 -28 -12 -21
21 -27 -2 -9 -33 15 -27 15 -33 3 -51 -14 -19 -15 -19 -54 16 -56 51 -85 43
-46 -12 15 -22 15 -24 -2 -37 -11 -7 -17 -15 -14 -17 3 -2 13 -8 24 -13 10 -6
18 -15 18 -20 0 -6 4 -16 10 -23 6 -7 9 -13 7 -15 -2 -1 -13 -7 -24 -13 -30
-17 -25 -38 10 -42 16 -2 33 -9 37 -15 4 -7 11 -7 22 3 19 15 35 5 18 -12 -18
-18 -14 -31 8 -25 15 4 20 0 20 -14 0 -24 15 -24 39 0 19 19 19 19 26 -6 8
-32 5 -34 -50 -40 -38 -5 -52 -1 -83 21 -50 34 -70 35 -48 0 l17 -25 -29 15
c-16 8 -40 26 -53 40 -30 32 -51 34 -47 4 2 -19 -3 -24 -31 -28 -19 -3 -36
-10 -38 -17 -6 -16 35 -36 70 -35 27 1 28 0 13 -17 -39 -43 -7 -55 36 -14 15
15 28 22 28 16 0 -6 -6 -16 -14 -22 -11 -9 -11 -17 -3 -35 11 -23 12 -23 44
-8 18 9 33 19 33 24 0 4 5 8 12 8 6 0 -1 -13 -16 -29 -32 -33 -28 -58 6 -40
15 8 19 8 14 0 -4 -6 -2 -11 4 -11 6 0 13 6 16 14 3 8 26 19 50 25 36 9 48 18
59 44 12 28 14 29 15 9 0 -26 -89 -127 -121 -137 -11 -4 -31 2 -48 14 -39 28
-55 28 -40 0 12 -23 14 -23 -53 -2 -12 3 -18 0 -18 -11 0 -12 -7 -14 -30 -10
-22 5 -31 2 -36 -11 -4 -10 -1 -20 6 -25 7 -4 10 -12 6 -18 -3 -5 4 -12 15
-15 12 -3 18 -10 14 -16 -3 -6 1 -11 9 -11 9 0 16 -7 16 -16 0 -11 6 -13 19
-9 23 7 40 -30 22 -48 -8 -8 -11 -8 -11 1 0 14 -38 16 -59 3 -9 -6 -10 -11 -2
-15 14 -9 15 -66 1 -66 -6 0 -13 7 -16 15 -4 9 -15 20 -27 26 -18 10 -19 9
-13 -15 6 -26 6 -26 -36 -20 l-43 7 19 -22 c11 -11 25 -21 33 -21 10 0 12 -6
8 -20 -5 -16 -2 -20 15 -20 11 0 23 -7 26 -15 4 -8 12 -15 20 -15 8 0 14 -8
14 -17 1 -16 2 -17 13 -2 14 18 30 8 41 -28 3 -11 20 -35 36 -53 17 -19 30
-35 30 -37 0 -1 -13 -9 -30 -18 -36 -19 -89 -19 -114 0 -16 12 -22 12 -42 -2
-23 -15 -26 -14 -44 7 -10 12 -24 19 -29 15 -6 -3 -11 1 -11 10 0 14 -3 14
-27 -3 -40 -27 -55 -31 -82 -20 -19 6 -22 11 -13 20 20 20 13 28 -24 28 -31 0
-37 4 -50 35 -7 19 -13 45 -13 57 1 20 2 21 6 3 14 -65 37 -92 50 -60 5 13 8
13 20 -5 18 -26 43 -27 36 -1 -8 32 13 32 36 1 26 -36 37 -38 44 -8 5 16 9 19
19 11 13 -10 78 9 78 23 0 14 -51 53 -72 56 -15 2 -23 10 -23 23 0 21 -15 23
-65 10 -21 -5 -22 -5 -7 5 9 6 17 17 17 25 0 7 9 17 20 20 29 9 25 22 -10 29
-19 3 -30 12 -30 22 0 11 6 15 19 11 11 -2 25 3 34 13 8 10 21 20 28 22 18 6
2 28 -22 28 -26 0 -24 13 5 41 27 26 25 39 -5 39 -18 0 -19 2 -4 29 19 38 2
51 -21 16 -12 -18 -20 -23 -27 -16 -19 19 -27 12 -48 -36 -19 -45 -64 -103
-79 -103 -13 0 -20 143 -8 157 14 17 28 16 28 -2 0 -17 16 -20 25 -5 3 5 15
10 26 10 10 0 19 4 19 8 0 12 -34 42 -48 42 -7 0 -12 5 -12 10 0 7 13 8 34 4
48 -9 64 4 32 25 -26 18 -26 18 -6 36 32 29 23 39 -14 17 -32 -19 -35 -19 -39
-4 -2 11 -12 0 -27 -33 l-24 -50 -4 34 c-2 24 5 47 27 83 17 27 31 54 31 59 0
16 -19 10 -32 -11 -20 -31 -28 -24 -28 24 0 26 -6 48 -15 56 -13 11 -15 3 -15
-59 l0 -71 -30 32 c-38 42 -40 18 -4 -36 28 -41 45 -126 25 -126 -6 0 -13 11
-16 25 -3 14 -7 36 -10 50 -6 27 -25 35 -25 10 0 -19 -9 -19 -32 2 -29 26 -35
5 -9 -39 16 -29 20 -43 12 -51 -21 -21 -13 -40 14 -33 21 5 25 3 25 -15 0 -18
-4 -20 -31 -14 -29 7 -30 6 -20 -13 6 -12 16 -24 22 -27 6 -5 2 -13 -11 -22
-19 -14 -24 -13 -59 11 -20 14 -42 26 -49 26 -18 0 -14 -18 8 -37 20 -17 20
-17 -2 -29 l-23 -12 25 -12 c14 -6 30 -22 36 -35 10 -21 9 -24 -10 -27 -11 -2
-22 -11 -24 -22 -3 -15 0 -18 21 -12 15 3 29 1 32 -5 4 -6 20 -7 38 -3 l32 6
-20 -22 -20 -23 28 5 c19 4 27 1 27 -8 0 -20 27 -17 38 3 9 14 10 14 16 -5 11
-34 -1 -42 -57 -42 -36 0 -60 6 -77 20 -27 21 -50 26 -50 10 0 -5 -7 -10 -15
-10 -8 0 -15 3 -15 8 0 8 -49 32 -67 32 -7 0 -10 -7 -7 -15 4 -8 1 -15 -5 -15
-6 0 -11 7 -11 16 0 11 -6 14 -20 9 -15 -5 -20 -2 -20 11 0 15 -5 13 -29 -10
-21 -20 -37 -27 -57 -24 -25 3 -29 7 -26 31 3 25 0 27 -31 27 -27 0 -36 5 -45
25 -7 14 -12 31 -12 38 1 7 7 -3 15 -21 16 -36 35 -35 35 1 1 20 2 20 16 -5
17 -32 49 -39 39 -9 -3 12 0 21 10 25 9 3 15 0 15 -8 0 -7 11 -23 24 -35 l24
-23 4 24 c2 19 8 22 31 20 16 -2 40 4 54 13 l24 16 -25 24 c-14 12 -37 27 -53
32 -21 7 -27 15 -25 31 2 16 -2 22 -17 22 -11 0 -23 -5 -26 -10 -3 -5 -14 -10
-23 -10 -15 1 -16 2 -1 13 9 7 14 17 12 22 -2 6 7 15 18 20 31 14 28 29 -7 35
-31 6 -42 36 -11 34 19 -2 67 39 67 56 0 6 -9 10 -20 10 -11 0 -20 6 -20 13 0
7 9 23 20 35 27 28 25 42 -5 42 -24 0 -24 0 -7 29 23 40 7 52 -22 16 -21 -27
-24 -27 -33 -10 -10 17 -12 16 -27 -13 -9 -17 -16 -37 -16 -45 0 -7 -16 -33
-37 -56 -45 -53 -52 -44 -50 59 2 62 5 75 19 78 13 2 16 -1 12 -12 -7 -17 6
-21 22 -7 5 5 20 11 32 13 l24 3 -22 28 c-12 15 -28 27 -36 27 -8 0 -14 4 -14
10 0 6 18 7 45 3 50 -6 59 6 23 31 l-22 16 24 25 c27 28 8 36 -26 10 -22 -17
-38 -20 -29 -5 3 6 2 10 -3 10 -6 0 -17 -18 -25 -39 -21 -51 -37 -61 -37 -23
0 16 16 59 35 95 19 37 31 68 25 72 -5 3 -17 -6 -26 -20 -22 -33 -34 -23 -34
28 0 23 -5 49 -10 57 -7 10 -10 -10 -10 -65 l-1 -80 -29 35 c-38 44 -41 19 -5
-48 16 -30 25 -63 25 -92 l0 -45 -15 29 c-8 15 -15 41 -15 57 0 35 -18 47 -28
19 -7 -20 -9 -20 -21 -6 -13 15 -41 22 -41 11 0 -3 10 -24 21 -47 18 -34 19
-45 9 -61 -16 -26 2 -46 25 -27 13 11 15 9 15 -14 0 -29 -3 -31 -31 -16 -15 9
-19 7 -19 -6 0 -10 8 -26 17 -36 15 -17 15 -19 -3 -32 -16 -12 -22 -11 -47 7
-70 52 -67 51 -67 29 0 -11 7 -27 15 -36 19 -19 19 -26 0 -26 -8 0 -15 -7 -15
-15 0 -8 6 -15 14 -15 8 0 21 -13 29 -29 14 -28 14 -30 -10 -36 -33 -8 -27
-41 6 -37 13 1 30 -3 37 -9 11 -9 18 -8 29 1 19 16 34 5 17 -12 -18 -18 -14
-31 8 -25 15 4 20 0 20 -14 0 -23 13 -24 34 -4 20 21 26 19 26 -10 0 -24 -3
-25 -56 -25 -41 0 -63 5 -81 20 -27 21 -53 26 -53 10 0 -5 8 -14 18 -19 15 -9
15 -10 0 -11 -9 0 -37 16 -62 35 -26 19 -48 35 -50 35 -3 0 -6 -10 -8 -22 -2
-18 -11 -24 -35 -26 -19 -2 -33 -9 -33 -16 0 -18 54 -40 81 -33 19 5 20 4 5
-12 -38 -41 -5 -57 34 -16 13 14 26 23 28 20 3 -3 -2 -11 -12 -18 -14 -10 -15
-17 -6 -41 9 -25 12 -27 28 -15 9 8 28 20 42 28 l25 14 -22 -25 c-33 -35 -28
-69 5 -36 9 9 12 8 12 -7 1 -20 1 -20 16 0 8 11 18 20 22 21 36 4 71 21 89 43
13 14 23 20 23 14 0 -18 -66 -89 -106 -114 l-34 -21 -29 21 c-34 25 -56 27
-47 6 6 -17 -29 -22 -39 -5 -10 16 -25 12 -25 -6 0 -13 -7 -15 -30 -11 -22 5
-32 2 -39 -11 -5 -9 -12 -14 -16 -10 -4 3 1 17 10 31 20 31 3 46 -18 16 -11
-15 -21 -19 -36 -14 -18 5 -24 0 -37 -32 -17 -42 -61 -93 -79 -93 -16 0 -27
120 -13 137 14 17 28 16 28 -2 0 -17 16 -20 25 -5 3 6 15 10 26 10 29 0 23 18
-13 40 l-33 20 50 0 50 0 -28 18 c-27 19 -27 19 -7 37 27 25 19 30 -18 11 -22
-11 -32 -12 -34 -4 -2 6 -15 -6 -28 -28 l-24 -39 -4 29 c-3 20 6 42 27 73 17
24 31 48 31 53 0 17 -19 11 -32 -10 -19 -30 -28 -24 -28 19 0 42 -14 62 -24
35 -3 -9 -6 -34 -6 -57 l0 -40 -25 23 c-38 35 -40 19 -5 -37 23 -37 30 -60 28
-84 l-4 -34 -11 25 c-6 14 -14 37 -17 53 -7 28 -26 38 -26 12 0 -18 -5 -19
-30 -3 -30 19 -34 2 -9 -38 16 -26 19 -39 11 -42 -22 -7 -13 -33 10 -30 15 2
24 -3 26 -14 4 -19 -22 -25 -33 -8 -4 6 -11 8 -16 4 -6 -4 -5 -14 4 -27 28
-44 -4 -62 -51 -29 -43 30 -50 33 -57 23 -3 -6 4 -18 15 -29 l21 -19 -22 -6
c-22 -6 -18 -27 5 -27 8 0 21 -11 30 -24 15 -24 15 -25 -7 -28 -31 -4 -29 -34
2 -30 14 1 28 -3 32 -10 7 -10 12 -11 29 0 25 15 38 16 22 0 -7 -7 -12 -18
-12 -25 0 -11 5 -11 20 -3 17 9 20 8 20 -11 0 -20 1 -21 25 -5 22 15 26 15 31
2 3 -8 3 -20 -1 -26 -9 -15 -110 -13 -124 3 -6 8 -29 20 -51 27 -22 7 -40 19
-40 27 0 15 -12 17 -26 4 -5 -5 -23 -12 -40 -15 -30 -7 -31 -6 -26 26 l5 32
-26 -17 c-15 -9 -37 -17 -50 -17 -31 0 -118 44 -147 75 l-23 25 31 0 c17 0 34
-4 37 -10 10 -16 25 -12 25 7 0 15 1 15 18 0 24 -22 32 -21 32 0 0 14 3 13 16
-5 8 -12 21 -22 28 -22 15 0 30 27 27 48 -1 6 8 12 20 12 15 0 19 5 15 15 -3
8 -1 15 5 15 6 0 6 7 -1 20 -11 20 3 30 15 10 3 -5 14 -10 25 -10 13 0 17 5
13 20 -4 13 0 20 9 20 8 0 23 9 33 20 18 20 17 20 -20 20 -29 0 -36 3 -31 15
8 21 -8 18 -30 -6 l-18 -20 -8 20 c-4 12 -5 29 -2 39 4 9 -10 0 -30 -20 -43
-44 -55 -46 -116 -14 -49 25 -96 86 -66 86 9 0 19 -7 22 -15 7 -18 34 -20 34
-3 0 7 7 2 16 -10 21 -30 34 -28 34 7 0 40 11 44 39 15 40 -42 57 -27 20 20
-24 31 -17 34 18 6 31 -24 45 -26 36 -4 -4 10 1 22 11 30 10 7 15 17 12 23 -4
5 6 11 21 13 37 4 45 38 9 38 -14 0 -30 8 -35 18 -10 16 -12 16 -41 0 -41 -24
-47 -23 -54 8 -5 19 -11 24 -26 19 -15 -5 -18 -3 -14 9 9 24 -10 19 -36 -9
-38 -40 -104 -29 -81 14 11 19 9 21 -18 21 -16 0 -36 7 -45 15 -17 18 -30 74
-23 102 3 10 5 2 6 -17 1 -19 8 -46 16 -60 l14 -25 9 25 9 24 12 -22 c14 -27
45 -30 39 -4 -3 10 1 23 9 30 10 10 13 10 13 -2 0 -8 11 -28 24 -43 l24 -28 7
28 c7 28 19 35 30 17 6 -10 59 12 70 29 8 13 -36 55 -74 71 -23 9 -30 17 -26
30 8 26 -11 34 -37 16 -32 -22 -45 -20 -23 4 10 11 15 23 12 27 -4 3 3 11 15
17 34 18 32 33 -7 40 -27 5 -35 12 -33 24 2 9 12 16 22 15 10 0 31 11 47 26
22 21 26 30 17 39 -7 7 -18 12 -25 12 -19 0 -16 18 8 51 21 30 18 49 -8 49
-11 0 -13 5 -8 18 4 9 10 28 12 42 4 24 3 23 -26 -9 -25 -29 -31 -32 -37 -18
-10 26 -22 11 -39 -47 -9 -30 -31 -71 -49 -92 l-33 -38 -7 92 c-6 67 -4 97 4
107 15 18 31 10 23 -10 -6 -17 0 -19 25 -6 9 5 25 12 35 15 17 6 17 8 -3 36
-12 16 -28 30 -36 30 -8 0 -14 4 -14 10 0 6 18 7 45 3 49 -6 57 3 27 30 -23
21 -92 23 -92 3 0 -7 -7 -19 -15 -26 -13 -11 -15 -8 -15 14 0 16 -5 26 -15 26
-11 0 -15 -11 -15 -42 l0 -43 -15 29 c-8 15 -15 35 -15 42 0 10 -13 14 -40 14
l-41 0 17 -31 c13 -27 14 -36 3 -56 -16 -30 1 -54 26 -33 13 11 15 8 15 -20 0
-32 0 -32 -25 -16 -23 15 -25 15 -25 -2 0 -9 6 -27 14 -38 12 -16 12 -22 1
-38 -13 -18 -15 -17 -43 2 -16 12 -35 28 -42 37 -29 35 -43 -2 -15 -42 13 -19
13 -22 0 -27 -22 -8 -18 -25 10 -38 13 -6 22 -15 19 -20 -3 -5 0 -15 6 -23 10
-12 7 -17 -15 -25 -34 -13 -31 -46 4 -42 13 1 30 -3 37 -9 11 -9 18 -8 29 1
20 16 32 5 16 -14 -17 -20 -4 -41 15 -25 11 9 14 7 14 -9 0 -15 6 -20 20 -19
11 1 20 7 20 14 0 21 17 15 23 -9 9 -33 1 -38 -58 -38 -43 0 -60 5 -84 26 -35
29 -63 24 -35 -7 31 -34 -8 -22 -53 16 -46 39 -63 44 -63 16 0 -14 -10 -21
-35 -25 -19 -4 -35 -13 -35 -20 0 -16 42 -36 76 -36 23 0 24 -1 10 -16 -18
-18 -20 -30 -6 -39 5 -3 21 5 34 19 13 14 27 26 31 26 5 0 1 -8 -9 -18 -14
-16 -15 -23 -3 -44 l13 -26 43 29 c43 30 45 23 8 -18 -24 -27 -15 -43 13 -25
16 10 18 9 14 -3 -4 -8 -1 -15 4 -15 6 0 14 9 17 20 4 11 10 18 15 15 17 -11
73 19 91 49 10 17 19 25 19 18 0 -27 -31 -71 -80 -112 l-51 -42 -40 27 c-44
29 -57 28 -40 -3 9 -17 7 -19 -15 -14 -13 2 -27 8 -30 13 -9 15 -24 10 -24 -7
0 -11 -8 -14 -26 -12 -32 4 -58 -27 -35 -41 7 -5 10 -14 7 -20 -4 -7 1 -11 13
-11 15 0 19 -4 14 -17 -5 -12 -2 -15 10 -10 12 4 17 1 17 -12 0 -12 7 -17 23
-17 16 1 23 -5 25 -21 4 -24 -7 -30 -25 -12 -10 10 -63 2 -63 -10 0 -4 5 -12
11 -18 6 -6 9 -20 7 -32 -2 -17 -78 61 -359 366 -196 214 -620 675 -942 1026
l-587 638 59 52 c54 48 134 137 223 248 20 25 52 52 70 58 99 36 166 78 233
146 84 85 132 165 176 292 18 52 43 104 54 115 19 18 96 50 243 100 62 21 108
-18 217 -181 44 -66 59 -80 114 -108 85 -42 111 -69 199 -203 135 -206 232
-339 276 -375 55 -45 106 -62 233 -80 56 -8 117 -21 135 -28 18 -8 93 -60 167
-116 73 -56 136 -99 139 -96 3 3 3 7 1 9 -74 62 -287 210 -318 221 -24 8 -83
20 -132 25 -48 6 -95 13 -103 16 -17 6 -22 24 -8 24 5 0 20 9 33 21 13 11 25
16 27 10 6 -19 22 -12 22 9 0 19 10 24 38 21 6 -1 12 3 12 9 0 6 4 9 9 5 5 -3
13 0 17 6 4 8 9 7 15 -2 6 -10 9 -8 9 9 0 27 8 28 27 5 11 -14 13 -15 12 -3
-1 8 3 28 10 45 10 23 14 26 21 15 8 -12 10 -9 10 10 0 20 2 22 10 10 8 -12
10 -10 10 9 0 16 4 21 14 18 8 -3 16 2 19 14 3 12 11 17 21 13 11 -4 17 2 22
21 4 17 11 24 20 21 9 -4 14 2 14 17 0 18 2 19 10 7 8 -12 10 -11 10 7 0 33
18 37 23 6 3 -22 4 -20 6 11 1 33 3 37 16 26 13 -11 15 -8 16 16 0 16 3 23 6
17 10 -26 33 -13 33 18 0 17 4 28 10 24 6 -4 10 5 10 19 0 14 5 26 10 26 6 0
10 -5 10 -11 0 -6 7 -17 15 -25 13 -14 15 -10 16 38 0 47 1 50 11 28 l11 -25
6 30 c5 24 8 26 13 13 11 -26 28 -22 28 7 0 31 17 33 23 3 3 -18 5 -17 6 7 l2
30 15 -25 c9 -14 13 -17 10 -7 -11 34 5 38 40 12 l34 -26 0 25 c0 15 5 26 10
26 6 0 10 -6 10 -12 0 -10 2 -10 9 0 12 19 34 11 49 -18 12 -25 12 -25 7 7 -4
33 8 54 19 31 5 -11 7 -11 12 0 3 6 10 10 15 6 5 -3 10 1 10 8 1 7 5 0 9 -17
l8 -30 1 27 c1 27 21 51 21 26 1 -8 4 -7 10 4 14 24 60 1 60 -29 0 -13 5 -23
11 -23 7 0 8 16 3 45 -4 28 -2 45 4 45 12 0 23 -31 32 -90 7 -45 7 -44 8 17 2
65 22 101 22 39 0 -19 3 -37 8 -39 4 -3 6 20 5 51 -1 53 -1 54 6 17 l8 -40 2
44 c2 68 15 40 28 -62 l12 -92 -5 95 c-5 100 0 107 29 32 l17 -47 -4 45 c-5
51 8 124 17 100 4 -8 8 -49 10 -90 3 -62 4 -59 3 18 -1 50 2 92 7 92 4 0 7 -9
7 -19 0 -11 5 -23 10 -26 6 -4 10 8 10 29 0 60 17 40 19 -21 0 -31 5 -61 11
-67 5 -5 9 -26 9 -45 l-1 -36 -8 30 c-7 29 -8 29 -9 -9 0 -22 4 -67 10 -100 5
-34 9 -95 7 -136 l-3 -75 -11 75 -11 75 -3 -90 c-2 -68 -4 -82 -10 -55 -7 34
-7 33 -9 -15 -3 -66 -19 -33 -21 45 l-2 55 -10 -53 c-6 -33 -14 -50 -20 -46
-8 5 -9 -8 -6 -40 3 -25 2 -46 -3 -46 -4 0 -10 19 -13 43 -12 88 -13 90 -16
22 -2 -55 -4 -64 -10 -40 -7 29 -8 29 -9 -9 -1 -32 -3 -37 -15 -26 -8 6 -17
21 -19 33 -2 12 -5 -3 -6 -33 l-3 -55 -12 35 c-12 34 -13 34 -20 10 -5 -14 -7
-36 -6 -49 1 -13 -3 -21 -8 -17 -5 3 -13 -4 -17 -17 -6 -17 -10 -8 -15 38 l-7
60 -1 -55 c-3 -82 -13 -134 -23 -118 -6 8 -9 2 -9 -20 0 -20 -4 -31 -10 -27
-5 3 -10 -1 -10 -9 0 -9 -4 -16 -9 -16 -5 0 -11 -9 -14 -21 -3 -12 -10 -18
-16 -14 -7 3 -11 -3 -11 -15 0 -35 -17 -56 -67 -85 -50 -29 -103 -73 -103 -86
0 -11 127 81 170 123 19 19 69 83 110 144 68 99 84 115 164 169 150 101 161
129 144 356 -16 215 -15 226 20 296 34 66 69 98 258 236 165 121 189 123 282
29 59 -60 78 -73 153 -101 100 -38 148 -74 186 -138 l26 -45 -24 -19 c-79 -61
-213 -131 -295 -155 -49 -14 -102 -34 -119 -44 -40 -25 -323 -310 -308 -310 7
0 15 5 18 10 4 6 10 8 14 6 4 -3 17 3 28 14 12 10 24 16 27 13 3 -4 7 7 7 23
1 23 3 25 6 7 2 -13 8 -23 13 -23 5 0 7 14 3 32 -5 26 -4 30 10 25 12 -4 17
-1 18 11 1 9 5 1 9 -18 7 -32 7 -30 9 20 1 40 4 51 12 43 16 -16 39 -4 39 21
0 16 2 18 9 7 7 -11 10 -7 14 15 l4 29 2 -32 c1 -37 21 -46 22 -10 0 14 16 35
42 55 37 31 42 32 48 15 7 -17 8 -17 8 0 1 10 6 15 11 12 6 -3 14 4 19 17 6
13 10 16 11 8 0 -13 1 -13 10 0 7 12 11 10 19 -10 l10 -25 1 30 c1 24 3 26 9
11 7 -18 8 -18 14 -2 4 9 11 14 17 11 5 -3 10 -2 10 2 0 14 44 13 52 0 5 -7 8
-1 8 16 0 16 4 26 10 22 6 -3 13 1 16 9 3 9 10 13 15 10 5 -3 9 0 9 5 0 6 7
11 15 11 8 0 15 6 15 13 0 9 3 8 9 -2 10 -15 31 -7 31 13 0 8 7 19 16 27 13
10 17 10 26 -2 8 -12 9 -11 5 2 -3 9 -1 22 4 30 7 12 9 12 9 0 0 -10 6 -8 21
8 16 17 24 20 35 10 11 -9 14 -7 14 12 0 19 2 21 10 9 8 -12 10 -11 10 8 0 12
5 22 10 22 6 0 10 7 10 16 0 8 5 12 10 9 6 -3 10 -2 10 3 0 6 15 19 32 30 24
16 35 18 40 9 5 -8 8 -5 8 8 0 15 10 25 33 33 43 15 45 15 50 -5 3 -10 5 -3 6
15 1 18 6 32 14 32 7 0 18 9 25 20 7 11 19 20 27 20 9 0 15 10 16 23 1 21 1
21 9 -3 l8 -25 1 28 c1 16 5 26 11 22 6 -3 10 1 10 10 0 9 4 13 10 10 5 -3 16
6 22 21 l13 28 6 -30 c6 -28 7 -27 8 9 1 26 5 37 16 37 9 0 18 7 21 15 4 8 12
15 20 15 8 0 15 6 15 13 1 6 5 -1 9 -18 l8 -30 1 34 c1 25 5 32 16 27 10 -3
15 1 16 12 0 10 3 12 6 5 2 -7 13 -13 23 -13 10 0 21 6 23 13 3 6 6 2 6 -11 1
-13 5 -20 11 -17 6 4 8 16 5 28 -5 16 -4 18 3 8 8 -11 14 -10 36 4 21 14 27
15 30 4 13 -41 14 -43 15 -23 1 22 23 38 35 27 3 -4 7 -36 7 -72 l2 -66 7 70
c4 39 11 79 16 90 8 17 10 15 15 -15 l6 -35 2 40 c1 37 2 38 15 19 8 -11 16
-38 19 -60 3 -36 4 -36 5 11 3 55 22 102 22 52 0 -16 4 -26 10 -22 6 3 10 17
10 31 0 13 5 24 10 24 6 0 11 -28 12 -62 l2 -63 3 53 c4 49 14 65 28 42 11
-19 35 -10 36 13 0 21 1 21 9 2 7 -17 9 -17 9 -2 1 9 6 17 12 17 8 0 10 -17 7
-51 -3 -29 -2 -45 3 -37 5 7 9 29 9 48 0 24 3 31 9 21 5 -7 14 -10 20 -7 7 4
11 -1 11 -13 0 -25 18 -37 26 -17 9 24 24 8 25 -27 l1 -32 8 30 c7 26 8 23 10
-25 3 -43 4 -47 7 -20 8 68 20 50 18 -27 -2 -57 -1 -61 2 -15 4 60 23 89 23
35 0 -22 2 -25 10 -13 7 11 10 1 10 -35 0 -49 17 -99 22 -65 1 8 5 -21 8 -65
l6 -80 3 90 c2 59 6 81 10 65 4 -14 13 -24 19 -23 15 4 16 -34 1 -39 -6 -2
-14 -44 -18 -93 -5 -50 -9 -81 -10 -71 0 11 -4 16 -8 12 -4 -4 -6 -39 -5 -79
2 -40 -1 -83 -7 -97 -9 -24 -10 -24 -11 10 -2 45 -7 31 -15 -45 -6 -47 -9 -55
-17 -41 -7 13 -7 26 1 43 6 13 10 68 9 126 -1 73 -3 84 -5 40 -2 -35 -9 -63
-14 -63 -6 0 -10 -15 -8 -32 1 -18 1 -51 0 -73 -2 -32 -4 -36 -11 -20 -6 15
-9 7 -9 -30 -1 -36 -4 -46 -11 -35 -5 8 -10 29 -11 45 -1 40 -6 23 -14 -47 -6
-57 -19 -75 -28 -40 -3 10 -5 6 -6 -10 0 -16 -5 -28 -11 -28 -5 0 -10 -12 -10
-26 0 -14 -4 -23 -9 -20 -9 6 -20 -48 -21 -99 -1 -28 -2 -29 -14 -12 -20 26
-30 5 -27 -54 1 -26 -3 -50 -9 -54 -6 -4 -10 13 -10 49 0 65 -14 106 -35 106
-13 0 -15 -7 -10 -37 5 -28 4 -34 -4 -23 -7 9 -11 10 -11 3 0 -17 23 -29 28
-15 2 7 8 12 13 12 12 0 12 -97 -1 -105 -5 -3 -10 -21 -10 -38 0 -18 -4 -43
-8 -57 -6 -21 -8 -17 -12 25 -6 47 -6 48 -14 20 -16 -60 -16 -61 -26 -45 -9
13 -10 13 -11 0 0 -10 -3 -8 -9 5 -8 19 -9 19 -9 -2 -1 -27 -21 -31 -21 -5 0
14 -2 15 -10 2 -8 -13 -11 -13 -19 -1 -5 7 -13 11 -19 7 -17 -10 -92 54 -161
137 -48 57 -79 84 -119 104 -88 43 -132 41 -342 -15 -210 -56 -272 -78 -283
-97 -4 -8 -14 -12 -23 -8 -10 4 -17 -2 -21 -16 -3 -11 -9 -18 -14 -16 -4 3
-12 -3 -18 -12 -6 -10 -11 -13 -11 -6 0 20 -27 4 -35 -20 -7 -22 -7 -22 -15 3
-8 25 -8 25 -15 -6 -5 -25 -11 -30 -26 -27 -14 4 -19 0 -19 -13 0 -16 -2 -17
-10 -4 -8 12 -10 11 -10 -7 0 -14 -6 -23 -15 -23 -8 0 -15 -5 -15 -11 0 -5 -4
-8 -9 -4 -5 3 -16 -4 -25 -16 -8 -12 -19 -18 -25 -14 -6 3 -11 -2 -11 -12 -1
-17 -2 -17 -15 1 -15 19 -15 19 -15 -5 0 -19 -2 -21 -10 -9 -8 12 -10 11 -10
-7 0 -33 -20 -39 -21 -6 0 25 -2 24 -17 -15 -9 -23 -21 -41 -27 -38 -5 2 -18
-1 -27 -6 -12 -6 -18 -5 -18 2 0 15 -23 -8 -39 -38 -6 -12 -17 -21 -23 -19 -6
1 -16 -7 -22 -19 -6 -11 -17 -19 -24 -16 -6 2 -12 -1 -12 -6 0 -6 -13 -13 -30
-17 -16 -4 -30 -10 -30 -13 0 -10 -51 -32 -72 -32 -10 0 -18 -5 -18 -10 0 -7
-6 -7 -19 0 -16 8 -22 6 -30 -7 -9 -16 -11 -15 -11 7 -1 21 -3 22 -9 7 -4 -10
-10 -18 -14 -18 -4 1 -20 -5 -36 -13 -16 -9 -32 -12 -35 -8 -4 4 -12 -1 -17
-11 -6 -9 -14 -15 -19 -12 -5 3 -11 -4 -15 -15 -4 -11 -11 -18 -16 -15 -5 4
-9 -1 -9 -9 0 -19 -20 -22 -21 -3 -1 6 -4 1 -8 -13 -5 -16 -13 -24 -24 -22
-10 2 -19 -6 -23 -22 -3 -14 -15 -27 -29 -30 -14 -4 -24 -15 -27 -31 -7 -33 2
-32 38 6 41 43 142 123 183 144 19 9 66 21 104 26 83 11 145 38 252 111 44 30
130 88 190 130 95 65 204 129 220 128 3 0 14 9 25 20 11 11 27 20 35 20 8 0
15 5 15 11 0 5 5 7 10 4 6 -3 10 0 10 7 1 7 7 2 15 -12 l14 -25 1 35 c1 27 3
31 9 16 7 -19 8 -19 13 2 4 15 11 20 22 16 9 -4 16 -1 16 6 0 9 4 9 16 -1 15
-12 16 -11 9 10 -6 20 -4 23 9 18 10 -4 16 -1 16 9 0 9 5 12 11 8 6 -3 15 0
20 7 6 10 9 7 9 -11 1 -25 1 -25 18 5 l16 30 6 -34 c7 -46 30 -53 30 -9 0 18
5 40 10 48 7 11 10 4 10 -28 0 -28 -10 -61 -30 -99 l-30 -56 -1 49 -2 49 -8
-45 c-4 -25 -8 -76 -8 -115 -1 -49 -4 -66 -11 -55 -5 8 -10 41 -10 73 0 60 -3
65 -25 43 -10 -10 -12 -29 -8 -69 3 -30 3 -67 -1 -82 -12 -48 -26 -15 -26 62
0 64 -2 74 -16 69 -9 -3 -18 -6 -20 -6 -2 0 -4 -6 -4 -14 0 -21 -28 -28 -33
-8 -3 12 -5 11 -6 -5 0 -12 3 -24 7 -27 15 -9 51 6 55 23 3 9 5 -13 6 -49 1
-55 -2 -67 -19 -78 -16 -10 -20 -10 -21 0 0 7 -5 2 -11 -12 l-11 -25 -7 30 -8
30 -1 -30 c-1 -28 -20 -72 -21 -50 0 6 -5 2 -11 -8 -6 -9 -14 -15 -20 -12 -5
4 -9 -2 -9 -12 0 -14 -2 -15 -9 -5 -6 10 -10 7 -15 -12 -3 -14 -12 -26 -19
-26 -7 0 -19 -16 -27 -35 -7 -19 -17 -32 -21 -29 -4 2 -10 -4 -14 -15 -3 -11
-12 -22 -20 -25 -8 -3 -15 -12 -15 -21 0 -23 -18 -18 -23 8 -3 16 -5 13 -6
-10 0 -18 -5 -33 -10 -33 -5 0 -13 -9 -16 -20 -3 -11 -12 -20 -20 -20 -7 0
-16 -6 -18 -12 -4 -10 -8 -9 -16 2 -9 12 -11 10 -12 -10 l-1 -25 -8 25 c-8 24
-8 24 -9 3 -1 -13 -5 -23 -10 -23 -5 0 -12 10 -14 23 l-4 22 -2 -23 c0 -13 -5
-20 -11 -17 -5 3 -10 1 -10 -5 0 -7 -7 -10 -15 -6 -8 3 -15 2 -15 -2 0 -4 -30
-25 -66 -46 -75 -43 -81 -59 -8 -22 27 14 81 30 119 37 l70 12 100 102 c55 55
127 130 160 166 47 50 79 73 147 107 108 52 119 70 147 241 29 170 37 186 103
206 113 33 172 37 235 15 51 -17 71 -34 163 -130 108 -113 155 -145 250 -170
76 -20 155 -67 261 -152 129 -106 138 -112 311 -202 225 -118 261 -128 453
-132 95 -1 192 -9 239 -18 44 -9 82 -14 84 -11 17 17 -131 37 -308 42 -171 5
-177 6 -265 40 -90 35 -310 147 -374 189 -19 13 -35 32 -36 44 -2 22 10 27 18
8 3 -7 6 -3 6 10 1 13 5 20 11 17 6 -3 10 2 10 12 1 17 2 16 17 -2 15 -20 15
-20 10 2 -3 13 -1 26 4 29 5 3 9 -10 9 -28 l0 -33 15 29 c8 15 15 36 16 45 0
10 2 11 6 4 8 -22 23 -14 23 13 0 20 4 25 22 22 16 -2 24 3 28 22 7 25 7 25
12 -5 5 -28 5 -27 7 8 1 41 7 46 26 20 12 -16 14 -13 20 22 10 59 12 62 23 35
10 -24 11 -24 12 10 l2 35 13 -35 13 -35 1 50 c1 36 4 46 11 35 8 -12 10 -9
10 13 0 30 16 37 23 10 4 -14 5 -13 6 4 2 38 21 37 21 -1 0 -20 5 -36 10 -36
6 0 10 14 10 30 0 41 20 38 21 -2 1 -32 1 -31 12 10 14 51 30 55 38 10 l6 -33
2 40 c1 41 19 86 22 55 0 -8 5 -4 9 10 l8 25 7 -23 c7 -21 9 -22 26 -6 10 9
22 13 27 10 5 -3 13 4 17 17 l7 22 8 -25 c8 -25 8 -25 9 -2 1 13 6 20 11 17 6
-3 10 -1 10 6 0 8 4 8 15 -1 12 -10 15 -9 15 4 0 10 4 15 9 12 5 -3 12 2 16
12 7 16 8 15 15 -3 7 -17 9 -17 9 -2 1 16 5 19 34 21 6 1 17 8 24 16 10 12 13
6 14 -35 2 -39 3 -42 6 -15 9 88 18 80 23 -20 l5 -105 9 123 c5 67 11 120 15
117 3 -4 9 -52 12 -108 l6 -102 1 123 c2 139 19 167 25 40 l3 -83 2 94 c1 52
4 92 7 89 11 -11 28 -154 28 -238 1 -83 12 -80 17 5 l3 40 10 -47 c6 -27 14
-48 19 -48 4 0 8 -19 8 -42 0 -24 5 -50 11 -58 8 -11 9 -2 4 33 -4 30 -2 47 4
47 6 0 11 -12 11 -26 0 -19 4 -25 15 -20 28 10 45 -5 47 -43 l1 -36 4 33 c4
32 23 46 23 17 0 -8 6 -14 13 -12 7 1 13 -10 15 -27 3 -22 6 -26 12 -15 7 11
12 11 22 1 16 -16 28 -15 28 3 0 8 5 15 10 15 6 0 10 -26 11 -57 1 -51 2 -54
9 -25 8 36 20 54 20 31 0 -12 2 -12 10 1 7 12 10 11 16 -5 4 -11 11 -23 16
-26 5 -3 12 -25 17 -50 6 -31 9 -36 10 -16 1 15 4 27 9 27 7 0 25 -30 38 -62
3 -10 12 -18 19 -18 7 0 21 -12 30 -27 10 -14 36 -46 57 -69 22 -24 38 -50 35
-57 -8 -21 -728 -799 -734 -793 -3 3 9 35 28 71 35 69 32 99 -6 51 l-22 -28
-5 56 c-3 31 -10 62 -16 68 -9 9 -12 -8 -12 -73 l-1 -84 -29 35 c-38 45 -40
20 -5 -50 25 -49 33 -104 16 -114 -10 -7 -21 27 -21 67 0 32 -19 36 -27 6 -6
-20 -6 -20 -29 2 l-24 22 0 -26 c0 -15 9 -41 19 -58 17 -28 18 -35 7 -51 -8
-11 -12 -27 -9 -36 6 -25 -63 -90 -79 -74 -21 21 -31 13 -24 -18 5 -28 -3 -40
-97 -142 -185 -202 -199 -218 -194 -218 5 0 312 330 572 615 89 97 382 415
751 815 186 201 393 432 332 369 l-74 -76 -39 69 c-35 62 -94 127 -150 168
-31 22 -94 102 -175 222 -40 59 -85 119 -101 134 -31 29 -31 29 -210 26 l-116
-2 -82 -55 c-45 -30 -85 -55 -88 -55 -3 0 -19 11 -35 25 -17 14 -82 56 -147
94 -167 100 -257 165 -331 243 -55 56 -80 74 -150 104 -101 43 -141 71 -181
128 -51 70 -138 154 -184 176 -24 11 -70 26 -102 32 -57 10 -65 9 -169 -26
-60 -20 -143 -42 -185 -48 -61 -9 -86 -18 -127 -47 -74 -52 -350 -263 -435
-332 -40 -32 -75 -59 -79 -59 -4 0 -14 12 -22 28 -8 15 -33 46 -56 69 -34 34
-59 47 -128 69 -81 26 -92 32 -161 102 l-74 74 -48 -4 c-58 -6 -91 -26 -293
-177 -140 -105 -282 -191 -314 -191 -6 0 -19 15 -28 33 -31 61 -84 116 -157
161 -79 50 -76 45 -159 199 -96 179 -117 198 -279 257 -74 27 -98 41 -169 105
-45 41 -90 75 -99 75 -9 -1 -29 -8 -46 -17z m127 -61 c35 -32 88 -76 119 -99
51 -38 56 -46 68 -99 11 -46 22 -66 52 -94 22 -20 49 -61 65 -97 15 -35 30
-63 35 -63 17 0 -56 137 -92 171 -21 19 -41 49 -44 65 -4 16 -11 42 -16 58
-14 46 -12 47 42 26 110 -44 146 -84 243 -268 60 -113 63 -116 139 -169 81
-55 116 -89 154 -152 18 -28 20 -38 10 -47 -19 -19 -171 -82 -234 -98 -79 -20
-264 -47 -275 -40 -6 4 -22 34 -37 68 -32 70 -91 165 -116 186 -9 8 -49 31
-89 50 l-71 35 -16 65 c-19 81 -35 105 -98 154 -116 88 -133 134 -86 234 51
109 111 171 167 172 10 0 46 -26 80 -58z m-358 -312 l-3 -45 9 44 c11 50 19
64 22 35 0 -10 4 4 8 31 l7 50 1 -65 c1 -47 -1 -61 -9 -50 -8 12 -9 10 -7 -10
5 -43 23 -27 26 23 2 27 7 45 13 42 5 -4 6 -17 3 -30 -4 -17 0 -29 15 -42 15
-12 21 -29 21 -58 0 -29 3 -36 10 -25 7 11 10 7 11 -20 l2 -35 7 40 6 40 8
-40 c12 -60 14 -64 15 -20 l1 40 20 -25 20 -25 0 23 c0 27 5 27 29 5 17 -17
33 -64 31 -88 -1 -5 -3 -55 -6 -110 -3 -55 -9 -101 -14 -103 -6 -2 -10 -15
-10 -29 0 -58 -15 -6 -21 70 -5 80 -6 79 -7 -37 -1 -66 -5 -116 -8 -113 -4 3
-10 44 -14 89 l-7 83 -2 -85 c-2 -47 -5 -79 -8 -72 -7 19 -23 14 -23 -7 0 -11
-4 -23 -10 -26 -10 -6 -14 17 -12 65 1 23 1 23 -8 5 -5 -11 -12 -33 -16 -50
-6 -23 -9 -6 -14 67 -4 54 -10 101 -14 105 -3 4 -4 -18 0 -49 7 -63 -2 -148
-17 -148 -5 0 -10 26 -11 58 -2 53 -2 52 -8 -23 -3 -44 -7 -66 -8 -50 -2 26
-4 27 -13 13 -5 -10 -14 -18 -19 -18 -5 0 -11 8 -13 18 -3 11 -5 7 -6 -10 0
-15 -5 -30 -11 -33 -5 -3 -10 -17 -10 -31 0 -32 -16 -31 -28 4 -9 24 -11 20
-11 -31 -1 -36 -5 -56 -11 -52 -6 3 -10 -4 -10 -17 0 -19 -2 -20 -10 -8 -9 13
-11 13 -20 0 -5 -8 -10 -25 -10 -38 0 -13 -4 -20 -10 -17 -5 3 -10 -1 -10 -9
0 -9 -4 -16 -10 -16 -5 0 -10 11 -10 25 0 25 -19 36 -21 13 0 -7 -4 -4 -9 7
-6 14 -9 4 -9 -38 -1 -54 -2 -57 -20 -47 -29 15 -31 13 -32 -22 -1 -31 -1 -32
-9 -8 -4 14 -8 19 -9 12 -1 -8 -10 -12 -23 -10 -15 2 -39 29 -75 83 -118 181
-121 184 -191 219 -122 62 -179 156 -140 229 11 21 11 21 19 2 6 -16 8 -13 8
14 1 25 5 32 16 27 8 -3 15 -1 15 5 0 6 6 17 14 25 13 12 15 10 19 -13 3 -23
4 -22 6 8 1 28 6 38 22 42 11 3 23 15 26 26 7 28 21 27 26 -1 3 -17 5 -14 6 9
1 24 5 31 16 27 10 -4 15 0 15 12 0 16 2 17 10 4 8 -12 10 -10 11 10 1 17 4
12 9 -15 l7 -40 2 46 c1 54 9 65 27 41 12 -16 13 -15 14 6 0 24 10 28 27 11 8
-8 14 0 20 32 6 25 15 43 21 42 7 -2 12 6 12 17 0 40 20 19 22 -22 1 -42 1
-41 8 12 6 44 8 50 15 32 10 -30 29 -23 33 14 l4 29 14 -25 13 -25 2 35 c1 32
2 33 9 10 7 -24 7 -23 12 10 4 35 4 35 15 10 l12 -25 0 28 c2 52 21 26 23 -30
l2 -58 3 55 c2 30 8 59 13 64 10 10 16 -10 29 -89 6 -37 9 -42 10 -19 2 58 14
124 22 124 4 0 10 -21 12 -47 3 -46 3 -45 5 12 2 68 19 65 25 -5 l4 -45 1 52
c2 42 5 51 17 47 9 -4 16 0 16 7 4 35 16 -101 13 -141z m3513 -152 c-3 -7 -5
-2 -5 12 0 14 2 19 5 13 2 -7 2 -19 0 -25z m125 -64 c17 -9 56 -25 87 -35 44
-16 73 -37 146 -107 92 -91 153 -136 285 -212 108 -62 208 -131 214 -146 8
-21 -111 -122 -192 -163 -43 -21 -108 -48 -147 -61 -111 -36 -136 -53 -267
-176 -111 -105 -263 -229 -295 -241 -6 -3 -43 20 -80 50 -37 29 -92 67 -121
84 l-53 30 24 29 c15 18 40 83 67 174 50 170 71 212 144 277 29 26 58 58 65
70 6 12 20 83 32 158 11 75 27 154 35 177 7 22 14 56 14 74 0 39 1 39 42 18z
m-3365 -36 c-3 -8 -6 -5 -6 6 -1 11 2 17 5 13 3 -3 4 -12 1 -19z m105 -52 c96
-44 140 -95 188 -216 15 -39 16 -48 4 -64 -10 -15 -14 -16 -18 -5 -2 8 -7 21
-9 29 -3 8 -5 -2 -4 -23 0 -20 -3 -40 -6 -44 -4 -3 -8 25 -8 63 -2 70 -4 62
-15 -55 -6 -70 -21 -71 -27 -1 -2 25 -4 12 -3 -27 1 -40 0 -73 -2 -73 -1 0 -7
10 -12 23 l-9 22 0 -22 c-1 -36 -21 -27 -22 10 -1 29 -2 27 -11 -13 -5 -25
-13 -54 -18 -65 -5 -11 -11 -27 -13 -35 -3 -9 -8 -1 -12 18 -6 24 -10 30 -16
20 -5 -7 -9 -21 -9 -30 0 -9 -5 -29 -11 -45 l-12 -28 -8 25 c-7 21 -8 19 -6
-12 2 -21 -1 -38 -5 -38 -4 0 -8 5 -8 10 0 6 -4 10 -10 10 -5 0 -10 -14 -10
-31 0 -24 -4 -30 -15 -25 -10 3 -15 -1 -16 -12 -1 -11 -4 -8 -9 8 -8 24 -8 23
-9 -7 -1 -34 -20 -47 -22 -15 -1 16 -2 16 -6 0 -2 -10 -11 -18 -19 -18 -8 0
-14 -9 -14 -19 0 -38 -20 -32 -22 6 -1 37 -1 37 -5 5 -2 -18 -9 -30 -14 -27
-5 4 -9 -1 -9 -9 0 -19 -16 -21 -23 -3 -3 6 -6 1 -6 -13 -1 -20 -3 -22 -11
-10 -8 12 -10 10 -10 -9 0 -19 -3 -21 -14 -12 -11 10 -16 8 -21 -9 -3 -11 -11
-18 -16 -15 -5 4 -9 -1 -9 -10 0 -11 -5 -15 -15 -11 -9 3 -15 0 -15 -8 0 -9
-7 -12 -20 -9 -15 4 -20 0 -20 -16 0 -23 -15 -28 -24 -8 -5 9 -7 9 -12 0 -6
-14 -31 -7 -58 16 -31 26 -136 173 -130 183 3 4 30 24 59 43 38 24 70 58 112
117 32 46 76 101 98 124 37 36 49 42 117 53 48 8 83 19 97 32 46 43 91 171 91
261 0 26 2 48 4 48 3 0 38 -15 78 -34z m-1625 -148 c-3 -7 -5 -2 -5 12 0 14 2
19 5 13 2 -7 2 -19 0 -25z m2540 -15 c-3 -10 -5 -4 -5 12 0 17 2 24 5 18 2 -7
2 -21 0 -30z m3583 -158 c11 -10 60 -78 108 -150 63 -94 114 -156 185 -225 54
-53 115 -123 136 -155 l38 -60 -97 -105 c-54 -58 -118 -127 -143 -155 l-45
-50 -32 30 c-39 37 -107 132 -146 204 -35 66 -85 105 -221 173 -57 29 -110 63
-118 75 -9 12 -18 58 -21 100 -4 51 -17 104 -36 153 -16 41 -27 84 -24 96 5
18 67 69 103 84 7 3 75 5 152 5 124 0 141 -2 161 -20z m-6403 -207 c-3 -8 -6
-5 -6 6 -1 11 2 17 5 13 3 -3 4 -12 1 -19z m5849 -25 c-10 -10 -19 5 -10 18 6
11 8 11 12 0 2 -7 1 -15 -2 -18z m151 -45 c-3 -8 -6 -5 -6 6 -1 11 2 17 5 13
3 -3 4 -12 1 -19z m-2131 -325 c-11 -11 -17 4 -9 23 7 18 8 18 11 1 2 -10 1
-21 -2 -24z m-2191 -1283 c8 -16 15 -44 14 -62 -1 -32 -1 -31 -14 12 -7 25
-16 53 -20 63 -12 29 3 19 20 -13z m2543 -15 c7 -14 12 -40 11 -58 l-1 -32 -9
38 c-5 21 -14 47 -19 58 -6 10 -7 19 -2 19 5 0 14 -11 20 -25z m-2528 -170 c0
-9 -11 -3 -30 17 -16 17 -30 38 -30 47 1 21 60 -43 60 -64z m2519 29 c34 -43
26 -64 -9 -26 -16 18 -30 37 -30 43 0 17 18 9 39 -17z m-2379 -64 c-13 -24
-78 -75 -87 -67 -11 12 6 37 26 37 10 0 26 11 35 25 20 30 42 35 26 5z m2540
-21 c-6 -10 -23 -27 -38 -36 -15 -10 -30 -22 -34 -27 -10 -15 -22 0 -15 19 4
8 15 15 26 15 11 0 27 13 37 29 19 32 41 32 24 0z m689 -109 c0 -33 -1 -32
-19 20 -24 69 -24 71 0 40 11 -14 19 -40 19 -60z m-2144 -20 c8 -16 15 -42 14
-57 0 -22 -4 -16 -19 27 -22 63 -21 60 -15 60 2 0 11 -13 20 -30z m-1110 0
c-3 -5 -12 -10 -20 -10 -8 0 -17 5 -20 10 -4 6 5 10 20 10 15 0 24 -4 20 -10z
m42 -14 c-5 -16 -27 -19 -27 -3 0 7 7 14 15 14 9 0 14 -5 12 -11z m2503 4 c0
-15 -29 -19 -39 -6 -9 11 -6 14 14 14 14 0 25 -4 25 -8z m40 -16 c0 -6 -7 -14
-15 -18 -10 -3 -15 1 -15 13 0 10 7 18 15 18 8 0 15 -6 15 -13z m654 -39 c26
-40 18 -51 -14 -20 -31 30 -40 58 -16 49 8 -3 22 -16 30 -29z m-564 11 c0 -3
-4 -8 -10 -11 -5 -3 -10 -1 -10 4 0 6 5 11 10 11 6 0 10 -2 10 -4z m-183 -53
c-3 -10 -5 -2 -5 17 0 19 2 27 5 18 2 -10 2 -26 0 -35z m-1377 -33 c19 -36 10
-44 -20 -15 -35 34 -42 62 -10 45 11 -6 24 -19 30 -30z m2269 4 c-13 -14 -36
-35 -51 -46 -28 -19 -28 -19 -28 1 0 15 6 21 23 21 15 0 29 9 37 25 7 14 20
25 28 25 11 0 9 -7 -9 -26z m-2148 -84 c-47 -43 -64 -50 -59 -22 2 9 13 18 25
20 11 2 29 12 39 23 9 10 22 19 28 19 6 -1 -9 -19 -33 -40z m-1274 -47 c-2
-16 -4 -5 -4 22 0 28 2 40 4 28 2 -13 2 -35 0 -50z m2540 -20 c-2 -16 -4 -3
-4 27 0 30 2 43 4 28 2 -16 2 -40 0 -55z m-792 37 c16 -32 20 -75 6 -66 -5 3
-11 18 -13 33 -3 16 -9 36 -13 46 -12 29 3 19 20 -13z m-470 -80 c-3 -5 -12
-10 -20 -10 -8 0 -17 5 -20 10 -4 6 5 10 20 10 15 0 24 -4 20 -10z m42 -14
c-5 -16 -27 -19 -27 -3 0 7 7 14 15 14 9 0 14 -5 12 -11z m426 -28 c11 -15 18
-30 14 -34 -5 -6 -67 51 -67 62 0 15 35 -4 53 -28z m-343 2 c0 -5 -5 -10 -11
-10 -5 0 -7 5 -4 10 3 6 8 10 11 10 2 0 4 -4 4 -10z m-170 -21 c0 -6 -4 -7
-10 -4 -5 3 -10 11 -10 16 0 6 5 7 10 4 6 -3 10 -11 10 -16z m-1480 -4 c16
-19 29 -19 52 2 17 15 18 15 18 -2 0 -14 3 -15 15 -5 8 7 15 8 15 2 0 -17 -25
-31 -67 -38 -35 -5 -43 -3 -52 14 -21 39 -7 58 19 27z m2567 -35 c3 0 12 8 19
18 12 15 15 15 24 2 9 -13 11 -13 20 0 8 13 10 12 10 -3 0 -21 -37 -37 -84
-37 -26 0 -35 5 -39 22 -9 33 3 42 24 19 11 -12 22 -21 26 -21z m-417 10 c0
-5 -20 -23 -45 -40 -42 -29 -45 -30 -45 -10 0 14 6 20 23 20 12 0 29 9 37 20
15 21 30 26 30 10z m-1301 -139 c0 -24 -2 -22 -19 14 -24 52 -24 66 0 36 11
-13 20 -35 19 -50z m2374 32 c-3 -7 2 -13 11 -13 9 0 16 -7 16 -15 0 -9 6 -12
15 -9 30 12 14 -16 -42 -76 -47 -49 -62 -60 -80 -55 -25 6 -30 -4 -11 -23 9
-9 7 -16 -7 -32 -27 -30 -42 -25 -37 10 l4 31 -34 -20 c-38 -23 -72 -18 -131
18 -30 19 -97 83 -69 67 6 -4 12 -3 12 3 0 6 16 1 35 -10 l35 -21 0 22 c0 19
1 20 16 6 18 -18 34 -21 34 -6 0 6 9 1 21 -11 l21 -21 19 21 c11 12 16 27 12
37 -5 13 -2 15 16 9 20 -6 22 -4 16 14 -4 13 -2 21 5 21 8 0 8 6 0 20 -13 24
5 28 18 3 6 -10 16 -14 26 -10 10 4 14 12 10 18 -10 17 47 59 62 45 6 -6 9
-17 7 -23z m-1733 -29 c0 -27 -4 -43 -10 -39 -17 11 -11 85 7 85 2 0 3 -21 3
-46z m630 6 c0 -13 -20 -13 -40 0 -12 8 -9 10 13 10 15 0 27 -4 27 -10z m37
-14 c-5 -16 -27 -19 -27 -3 0 7 7 14 15 14 9 0 14 -5 12 -11z m93 -20 c0 -3
-4 -8 -10 -11 -5 -3 -10 -1 -10 4 0 6 5 11 10 11 6 0 10 -2 10 -4z m-1130 -32
c0 -8 6 -11 15 -8 10 4 15 0 15 -11 0 -11 5 -15 15 -11 8 3 19 -3 25 -14 13
-24 -2 -35 -29 -20 -13 7 -22 7 -26 0 -4 -6 -11 -8 -16 -5 -5 4 -9 2 -9 -4 0
-5 5 -13 10 -16 11 -7 14 -55 4 -55 -3 0 -19 11 -36 25 -16 14 -38 25 -49 25
-11 0 -19 7 -19 16 0 11 6 15 18 12 10 -3 31 5 47 18 l29 23 -27 10 c-23 9
-26 13 -15 24 15 17 48 10 48 -9z m-291 -11 c12 -14 19 -28 17 -31 -6 -6 -54
30 -60 46 -10 23 22 12 43 -15z m1155 -51 c-22 -19 -52 -41 -68 -49 -26 -13
-32 -13 -62 3 -19 10 -34 24 -34 31 0 18 -29 16 -36 -2 -10 -24 -24 -17 -24
11 0 22 3 25 23 20 14 -3 36 2 56 15 39 23 50 20 21 -6 -26 -23 -26 -39 0 -32
11 3 20 0 20 -6 0 -7 7 -4 14 6 8 10 18 17 22 16 9 -2 38 7 64 20 8 4 20 18
25 30 l10 22 4 -23 c2 -17 -7 -32 -35 -56z m-272 11 c10 -9 18 -27 18 -41 l0
-25 -25 23 c-14 13 -25 32 -25 42 0 22 8 23 32 1z m-724 -5 c-5 -14 -65 -58
-79 -58 -5 0 -9 7 -9 15 0 9 9 15 23 15 12 0 29 9 37 20 16 22 34 27 28 8z
m246 -13 c6 -17 42 -20 51 -5 3 6 11 10 16 10 6 0 7 -4 4 -10 -9 -14 8 -13 23
2 9 9 12 9 12 0 0 -14 -25 -27 -69 -36 -38 -7 -61 6 -61 35 0 23 16 25 24 4z
m367 -1 c11 -14 14 -14 19 -1 4 12 12 9 39 -14 29 -23 32 -31 22 -43 -12 -14
-16 -14 -45 0 -35 18 -76 53 -76 66 0 14 27 9 41 -8z m212 -37 c3 -8 -1 -14
-9 -14 -15 0 -18 9 -7 20 9 9 10 9 16 -6z m264 -49 c-2 -13 -4 -5 -4 17 -1 22
1 32 4 23 2 -10 2 -28 0 -40z m-1088 -17 c21 -6 22 -8 7 -20 -13 -11 -17 -11
-22 2 -3 9 -12 13 -19 11 -8 -3 -22 -1 -32 5 -15 9 -14 10 12 10 17 -1 41 -4
54 -8z m-59 -108 c0 -2 5 -3 10 -3 6 0 15 10 20 23 6 16 9 18 9 5 1 -10 10
-22 21 -28 17 -9 20 -8 20 9 0 32 15 32 39 1 26 -36 37 -38 45 -8 4 18 8 20
17 11 9 -9 18 -9 31 -2 11 6 21 9 22 7 1 -2 14 -20 29 -41 l28 -37 -27 -10
c-21 -9 -29 -7 -43 8 -9 10 -22 17 -28 15 -7 -3 -13 3 -13 13 0 15 -2 16 -17
2 -49 -43 -110 -47 -98 -7 5 16 1 19 -22 19 -15 0 -33 4 -40 8 -14 9 -33 56
-33 80 1 13 29 -50 30 -65z m1405 67 c3 -5 1 -10 -4 -10 -6 0 -11 5 -11 10 0
6 2 10 4 10 3 0 8 -4 11 -10z m-1505 -71 c-17 -15 -47 -35 -65 -45 -34 -18
-35 -18 -80 4 -25 12 -45 26 -45 32 0 5 19 19 42 30 l41 20 -21 -23 c-27 -29
-28 -40 -2 -32 13 4 20 2 20 -7 1 -9 4 -8 13 3 7 9 28 20 47 24 49 10 70 23
71 43 1 14 2 13 6 -3 4 -13 -4 -28 -27 -46z m1512 21 c6 0 7 7 4 16 -4 9 -1
14 6 12 6 -2 13 -14 15 -26 4 -27 -41 -71 -72 -71 -43 -1 -135 54 -135 80 0
15 27 10 34 -6 7 -20 26 -19 26 1 0 13 4 11 18 -6 20 -25 48 -19 38 7 -11 27
5 34 31 13 14 -11 30 -20 35 -20z m-492 -10 c11 -6 12 -12 4 -20 -13 -13 -44
-2 -44 16 0 16 18 18 40 4z m-237 -19 c5 -5 15 -7 22 -5 7 3 16 1 19 -5 12
-18 -40 -23 -72 -7 -17 9 -33 20 -36 25 -7 11 55 4 67 -8z m800 -1 c7 -26 -28
-48 -37 -24 -6 16 9 44 24 44 4 0 10 -9 13 -20z m37 -20 c0 -5 -5 -10 -11 -10
-5 0 -7 5 -4 10 3 6 8 10 11 10 2 0 4 -4 4 -10z m-1801 -28 c-5 -2 -17 -1 -27
3 -15 6 -15 8 3 15 12 4 23 3 27 -4 4 -6 3 -13 -3 -14z m-181 -7 c26 -5 32 -3
32 10 0 9 6 15 13 12 6 -2 11 -14 9 -25 -2 -12 2 -22 8 -22 6 0 8 -4 5 -10 -3
-5 1 -10 9 -10 9 0 16 -7 16 -15 0 -19 -39 -20 -83 -2 -37 16 -51 32 -62 67
-7 20 -5 23 6 14 8 -7 29 -15 47 -19z m120 13 c-6 -18 -25 -20 -31 -3 -5 10 0
15 14 15 12 0 19 -5 17 -12z m342 -30 c0 -9 -4 -20 -10 -23 -6 -4 -10 9 -10
32 0 28 3 34 10 23 5 -8 10 -23 10 -32z m1569 -62 c10 -12 8 -15 -11 -18 -22
-3 -23 -7 -11 -48 2 -9 -12 -25 -39 -42 -53 -35 -67 -36 -60 -2 l5 26 -27 -17
c-18 -12 -37 -16 -61 -12 -42 7 -119 44 -140 67 -14 16 -14 17 9 15 13 -2 33
-6 45 -10 16 -5 21 -2 21 11 0 16 2 15 21 -2 17 -14 23 -16 26 -6 4 10 10 9
25 -4 15 -14 23 -16 36 -7 9 6 16 18 16 26 -2 19 24 11 47 -15 16 -17 18 -17
43 17 30 39 38 42 55 21z m71 -16 c-8 -6 -24 -15 -35 -21 -16 -8 -15 -6 4 10
13 12 28 21 35 21 6 0 4 -5 -4 -10z m-1520 -40 c18 -22 30 -28 45 -24 15 5 17
3 9 -6 -7 -7 -21 -9 -32 -6 -26 9 -72 45 -72 57 0 19 26 8 50 -21z m-270 10
c0 -5 -4 -10 -10 -10 -5 0 -10 5 -10 10 0 6 5 10 10 10 6 0 10 -4 10 -10z
m283 -184 c9 0 17 -7 17 -15 0 -8 3 -11 7 -8 3 4 12 2 19 -4 10 -9 15 -7 20 5
3 9 12 16 18 16 14 0 38 -45 29 -54 -20 -19 -125 15 -178 58 -19 15 -18 16 15
10 19 -4 43 -7 53 -8z m191 -11 c-29 -22 -42 -17 -15 6 13 11 26 17 29 14 3
-3 -3 -12 -14 -20z m1301 -49 c12 5 16 3 13 -6 -6 -20 -49 -48 -83 -54 -28 -6
-30 -4 -32 26 -2 30 -1 31 12 15 13 -17 14 -17 21 5 l8 23 6 -25 7 -25 8 28
c4 17 11 24 15 18 4 -7 15 -9 25 -5z m-240 -18 c35 0 45 -4 41 -14 -7 -17 10
-19 18 -1 5 10 7 10 12 0 3 -7 14 -13 25 -13 29 0 23 -16 -11 -30 -47 -20
-130 6 -149 46 -15 33 -14 39 3 25 8 -6 35 -12 61 -13z m-1131 -182 c8 18 8
18 16 -1 7 -17 9 -17 9 -2 1 11 9 17 26 17 31 0 32 -14 3 -34 -22 -15 -79 -22
-90 -10 -3 3 -4 14 -1 25 5 18 6 18 18 3 11 -15 12 -15 19 2z"/>
<path d="M3781 7374 c0 -11 3 -14 6 -6 3 7 2 16 -1 19 -3 4 -6 -2 -5 -13z"/>
<path d="M3751 7289 c-6 -18 -11 -37 -11 -44 0 -15 49 -65 62 -65 6 0 -4 14
-22 30 -21 19 -30 36 -26 46 11 29 18 64 13 64 -3 0 -10 -14 -16 -31z"/>
<path d="M3859 7122 c6 -12 16 -24 22 -28 8 -4 8 -1 0 14 -6 12 -16 24 -22 28
-8 4 -8 1 0 -14z"/>
<path d="M4330 6971 c0 -6 4 -13 10 -16 6 -3 7 1 4 9 -7 18 -14 21 -14 7z"/>
<path d="M4409 6866 c19 -20 37 -36 39 -36 10 0 -46 64 -59 68 -8 3 2 -12 20
-32z"/>
<path d="M4130 6873 c-1 -29 21 -62 53 -81 20 -11 47 -42 63 -71 16 -28 33
-51 38 -51 4 0 2 10 -6 23 -8 12 -25 39 -37 60 -13 21 -36 44 -53 53 -16 8
-36 30 -43 47 -8 18 -14 27 -15 20z"/>
<path d="M4560 6841 c0 -4 26 -31 57 -61 31 -30 51 -46 43 -35 -18 26 -100
105 -100 96z"/>
<path d="M4646 6697 c3 -10 9 -15 12 -12 3 3 0 11 -7 18 -10 9 -11 8 -5 -6z"/>
<path d="M3341 7134 c0 -11 3 -14 6 -6 3 7 2 16 -1 19 -3 4 -6 -2 -5 -13z"/>
<path d="M3535 7020 c3 -5 10 -10 16 -10 5 0 9 5 9 10 0 6 -7 10 -16 10 -8 0
-12 -4 -9 -10z"/>
<path d="M3651 6994 c0 -11 3 -14 6 -6 3 7 2 16 -1 19 -3 4 -6 -2 -5 -13z"/>
<path d="M3712 6990 c0 -14 2 -19 5 -12 2 6 2 18 0 25 -3 6 -5 1 -5 -13z"/>
<path d="M3462 6980 c0 -14 2 -19 5 -12 2 6 2 18 0 25 -3 6 -5 1 -5 -13z"/>
<path d="M3482 6980 c0 -14 2 -19 5 -12 2 6 2 18 0 25 -3 6 -5 1 -5 -13z"/>
<path d="M3410 6978 c0 -4 7 -8 15 -8 8 0 15 4 15 8 0 5 -7 9 -15 9 -8 0 -15
-4 -15 -9z"/>
<path d="M3631 6974 c0 -11 3 -14 6 -6 3 7 2 16 -1 19 -3 4 -6 -2 -5 -13z"/>
<path d="M3813 6945 c0 -22 2 -30 4 -17 2 12 2 30 0 40 -3 9 -5 -1 -4 -23z"/>
<path d="M3382 6945 c0 -16 2 -22 5 -12 2 9 2 23 0 30 -3 6 -5 -1 -5 -18z"/>
<path d="M3291 6923 c-1 -17 4 -35 9 -38 11 -7 11 9 0 45 -8 24 -8 24 -9 -7z"/>
<path d="M3842 6830 c0 -14 2 -19 5 -12 2 6 2 18 0 25 -3 6 -5 1 -5 -13z"/>
<path d="M3722 6780 c0 -19 2 -27 5 -17 2 9 2 25 0 35 -3 9 -5 1 -5 -18z"/>
<path d="M3457 6753 c-11 -10 -8 -93 3 -93 6 0 10 23 10 50 0 51 -1 55 -13 43z"/>
<path d="M3393 6700 c0 -25 2 -35 4 -22 2 12 2 32 0 45 -2 12 -4 2 -4 -23z"/>
<path d="M3492 6710 c0 -19 2 -27 5 -17 2 9 2 25 0 35 -3 9 -5 1 -5 -18z"/>
<path d="M3521 6714 c0 -11 3 -14 6 -6 3 7 2 16 -1 19 -3 4 -6 -2 -5 -13z"/>
<path d="M3552 6710 c0 -14 2 -19 5 -12 2 6 2 18 0 25 -3 6 -5 1 -5 -13z"/>
<path d="M3410 6675 c0 -25 4 -35 13 -32 6 2 12 16 12 32 0 16 -6 30 -12 33
-9 2 -13 -8 -13 -33z"/>
<path d="M3752 6690 c0 -14 2 -19 5 -12 2 6 2 18 0 25 -3 6 -5 1 -5 -13z"/>
<path d="M3334 6646 c-3 -8 -1 -23 5 -33 9 -15 10 -13 11 15 0 34 -7 42 -16
18z"/>
<path d="M3361 6634 c0 -11 3 -14 6 -6 3 7 2 16 -1 19 -3 4 -6 -2 -5 -13z"/>
<path d="M3382 6610 c0 -19 2 -27 5 -17 2 9 2 25 0 35 -3 9 -5 1 -5 -18z"/>
<path d="M3311 6614 c0 -11 3 -14 6 -6 3 7 2 16 -1 19 -3 4 -6 -2 -5 -13z"/>
<path d="M3281 6584 c0 -11 3 -14 6 -6 3 7 2 16 -1 19 -3 4 -6 -2 -5 -13z"/>
<path d="M3261 6564 c0 -11 3 -14 6 -6 3 7 2 16 -1 19 -3 4 -6 -2 -5 -13z"/>
<path d="M7474 6661 c20 -22 26 -25 26 -13 0 4 -10 13 -22 21 -23 14 -23 14
-4 -8z"/>
<path d="M7562 6577 c15 -12 36 -33 47 -47 11 -14 20 -20 21 -14 0 15 -68 84
-83 84 -7 0 0 -10 15 -23z"/>
<path d="M7222 6465 c0 -16 2 -22 5 -12 2 9 2 23 0 30 -3 6 -5 -1 -5 -18z"/>
<path d="M7218 6381 c-9 -22 -15 -41 -12 -41 8 0 35 62 32 72 -2 6 -11 -8 -20
-31z"/>
<path d="M7700 6396 c0 -3 27 -18 61 -35 33 -17 55 -24 49 -16 -7 9 -33 24
-58 35 -47 21 -52 23 -52 16z"/>
<path d="M7145 6200 c-4 -17 -5 -34 -2 -36 2 -3 7 10 11 27 3 18 4 34 2 36 -2
3 -7 -10 -11 -27z"/>
<path d="M7081 5974 c-12 -15 -21 -32 -21 -38 1 -11 24 15 41 47 14 25 3 21
-20 -9z"/>
<path d="M4038 6533 c6 -2 18 -2 25 0 6 3 1 5 -13 5 -14 0 -19 -2 -12 -5z"/>
<path d="M3960 6515 c-7 -9 -11 -18 -8 -20 9 -10 38 7 38 21 0 18 -14 18 -30
-1z"/>
<path d="M3911 6481 c-1 -24 2 -32 9 -25 7 7 7 19 1 35 -9 23 -10 22 -10 -10z"/>
<path d="M3892 6470 c0 -14 2 -19 5 -12 2 6 2 18 0 25 -3 6 -5 1 -5 -13z"/>
<path d="M3873 6435 c0 -22 2 -30 4 -17 2 12 2 30 0 40 -3 9 -5 -1 -4 -23z"/>
<path d="M3851 6424 c0 -11 3 -14 6 -6 3 7 2 16 -1 19 -3 4 -6 -2 -5 -13z"/>
<path d="M3831 6414 c0 -11 3 -14 6 -6 3 7 2 16 -1 19 -3 4 -6 -2 -5 -13z"/>
<path d="M3801 6394 c0 -11 3 -14 6 -6 3 7 2 16 -1 19 -3 4 -6 -2 -5 -13z"/>
<path d="M3782 6370 c0 -14 2 -19 5 -12 2 6 2 18 0 25 -3 6 -5 1 -5 -13z"/>
<path d="M3510 6050 c0 -5 5 -10 11 -10 5 0 7 5 4 10 -3 6 -8 10 -11 10 -2 0
-4 -4 -4 -10z"/>
<path d="M8469 6478 c12 -13 28 -32 37 -43 14 -19 15 -19 3 5 -15 32 -39 60
-52 60 -5 0 0 -10 12 -22z"/>
<path d="M8591 6278 c12 -23 45 -67 74 -98 28 -30 64 -78 79 -105 15 -28 38
-64 52 -80 l26 -30 -21 35 c-12 19 -33 58 -48 85 -14 28 -51 77 -83 110 -31
33 -64 75 -74 93 -9 17 -19 32 -21 32 -3 0 4 -19 16 -42z"/>
<path d="M8174 6179 c6 -42 42 -89 67 -89 6 0 -3 12 -20 26 -23 19 -31 34 -31
59 0 19 -5 37 -12 41 -8 5 -9 -5 -4 -37z"/>
<path d="M8328 6049 c18 -12 35 -19 38 -16 3 3 -8 13 -25 21 -43 23 -52 19
-13 -5z"/>
<path d="M8453 5955 c20 -19 55 -67 78 -105 51 -86 62 -92 17 -9 -36 65 -103
149 -120 149 -6 0 5 -16 25 -35z"/>
<path d="M6984 6930 c0 -63 1 -89 3 -57 2 31 2 83 0 115 -2 31 -3 5 -3 -58z"/>
<path d="M7012 6975 c0 -16 2 -22 5 -12 2 9 2 23 0 30 -3 6 -5 -1 -5 -18z"/>
<path d="M5438 6923 c13 -36 26 -52 51 -65 18 -9 43 -26 55 -37 34 -32 43 -25
11 9 -16 17 -34 30 -41 30 -22 0 -63 41 -69 70 -4 16 -11 32 -16 36 -5 3 -1
-16 9 -43z"/>
<path d="M6951 6934 c0 -11 3 -14 6 -6 3 7 2 16 -1 19 -3 4 -6 -2 -5 -13z"/>
<path d="M7093 6890 c0 -25 2 -35 4 -22 2 12 2 32 0 45 -2 12 -4 2 -4 -23z"/>
<path d="M7013 6880 c0 -25 2 -35 4 -22 2 12 2 32 0 45 -2 12 -4 2 -4 -23z"/>
<path d="M7062 6875 c0 -16 2 -22 5 -12 2 9 2 23 0 30 -3 6 -5 -1 -5 -18z"/>
<path d="M6912 6874 c-7 -8 -10 -18 -7 -23 3 -5 1 -12 -5 -16 -5 -3 -10 -11
-10 -18 0 -8 3 -8 11 0 6 6 18 9 25 6 10 -3 14 2 14 18 0 36 -12 50 -28 33z"/>
<path d="M6582 6815 c2 -27 8 -50 16 -53 18 -6 16 72 -4 89 -13 11 -15 7 -12
-36z"/>
<path d="M5656 6819 c18 -19 44 -58 59 -87 14 -30 28 -52 30 -50 11 10 -60
130 -88 149 l-32 22 31 -34z"/>
<path d="M6772 6820 c0 -19 2 -27 5 -17 2 9 2 25 0 35 -3 9 -5 1 -5 -18z"/>
<path d="M6662 6810 c0 -19 2 -27 5 -17 2 9 2 25 0 35 -3 9 -5 1 -5 -18z"/>
<path d="M6791 6813 c-1 -23 3 -33 14 -33 8 0 15 7 15 16 0 8 -4 13 -9 9 -5
-3 -12 5 -14 17 -3 17 -5 14 -6 -9z"/>
<path d="M6623 6795 c0 -22 2 -30 4 -17 2 12 2 30 0 40 -3 9 -5 -1 -4 -23z"/>
<path d="M6712 6805 c0 -16 2 -22 5 -12 2 9 2 23 0 30 -3 6 -5 -1 -5 -18z"/>
<path d="M2733 6780 c14 -16 31 -46 38 -67 10 -33 34 -70 93 -148 l16 -20 -7
20 c-3 11 -21 40 -38 65 -18 25 -42 67 -54 95 -23 52 -48 85 -63 85 -6 0 1
-13 15 -30z"/>
<path d="M6681 6794 c0 -11 3 -14 6 -6 3 7 2 16 -1 19 -3 4 -6 -2 -5 -13z"/>
<path d="M7121 6794 c0 -11 3 -14 6 -6 3 7 2 16 -1 19 -3 4 -6 -2 -5 -13z"/>
<path d="M7053 6755 c0 -27 2 -38 4 -22 2 15 2 37 0 50 -2 12 -4 0 -4 -28z"/>
<path d="M5101 6759 c-12 -19 -21 -43 -20 -54 0 -14 3 -12 9 9 5 15 17 37 26
47 9 11 14 22 11 25 -3 4 -15 -9 -26 -27z"/>
<path d="M6452 6755 c0 -16 2 -22 5 -12 2 9 2 23 0 30 -3 6 -5 -1 -5 -18z"/>
<path d="M6537 6773 c-11 -11 -8 -20 8 -20 8 0 15 6 15 14 0 14 -12 17 -23 6z"/>
<path d="M5662 6680 c7 -11 17 -20 22 -20 5 0 1 9 -9 20 -10 11 -20 20 -22 20
-2 0 2 -9 9 -20z"/>
<path d="M7102 6675 c0 -16 2 -22 5 -12 2 9 2 23 0 30 -3 6 -5 -1 -5 -18z"/>
<path d="M5082 6630 c0 -14 2 -19 5 -12 2 6 2 18 0 25 -3 6 -5 1 -5 -13z"/>
<path d="M4861 6594 c0 -11 3 -14 6 -6 3 7 2 16 -1 19 -3 4 -6 -2 -5 -13z"/>
<path d="M4983 6545 c0 -22 2 -30 4 -17 2 12 2 30 0 40 -3 9 -5 -1 -4 -23z"/>
<path d="M2232 6545 c0 -16 2 -22 5 -12 2 9 2 23 0 30 -3 6 -5 -1 -5 -18z"/>
<path d="M4854 6470 c0 -58 1 -81 3 -52 2 28 2 76 0 105 -2 28 -3 5 -3 -53z"/>
<path d="M4722 6490 c0 -14 2 -19 5 -12 2 6 2 18 0 25 -3 6 -5 1 -5 -13z"/>
<path d="M6163 6494 c-3 -8 -1 -20 6 -27 8 -8 11 -4 11 16 0 30 -7 35 -17 11z"/>
<path d="M2930 6434 c17 -38 40 -78 52 -89 21 -21 17 -8 -12 35 -10 14 -23 42
-29 62 -7 20 -19 42 -27 49 -8 7 -1 -18 16 -57z"/>
<path d="M4781 6474 c0 -11 3 -14 6 -6 3 7 2 16 -1 19 -3 4 -6 -2 -5 -13z"/>
<path d="M6200 6475 c0 -8 4 -15 10 -15 5 0 7 7 4 15 -4 8 -8 15 -10 15 -2 0
-4 -7 -4 -15z"/>
<path d="M6230 6481 c0 -5 5 -13 10 -16 6 -3 10 -2 10 4 0 5 -4 13 -10 16 -5
3 -10 2 -10 -4z"/>
<path d="M4982 6460 c0 -14 2 -19 5 -12 2 6 2 18 0 25 -3 6 -5 1 -5 -13z"/>
<path d="M5059 6413 c-4 -45 -11 -69 -27 -85 -21 -23 -52 -87 -52 -109 0 -7
14 15 31 47 17 32 37 71 45 86 9 16 14 47 12 75 -3 48 -3 48 -9 -14z"/>
<path d="M6050 6445 c0 -14 4 -25 9 -25 4 0 6 11 3 25 -2 14 -6 25 -8 25 -2 0
-4 -11 -4 -25z"/>
<path d="M6120 6455 c0 -8 4 -15 10 -15 5 0 7 7 4 15 -4 8 -8 15 -10 15 -2 0
-4 -7 -4 -15z"/>
<path d="M6012 6439 c1 -12 9 -24 16 -27 9 -3 13 3 10 19 -1 12 -9 24 -16 27
-9 3 -13 -3 -10 -19z"/>
<path d="M6101 6444 c0 -11 3 -14 6 -6 3 7 2 16 -1 19 -3 4 -6 -2 -5 -13z"/>
<path d="M1902 6420 c0 -19 2 -27 5 -17 2 9 2 25 0 35 -3 9 -5 1 -5 -18z"/>
<path d="M4701 6437 c-1 -12 -6 -16 -13 -11 -10 5 -10 4 -1 -6 16 -17 26 -8
20 17 -4 17 -5 17 -6 0z"/>
<path d="M5922 6420 c0 -14 2 -19 5 -12 2 6 2 18 0 25 -3 6 -5 1 -5 -13z"/>
<path d="M1871 6414 c0 -11 3 -14 6 -6 3 7 2 16 -1 19 -3 4 -6 -2 -5 -13z"/>
<path d="M4811 6394 c0 -11 3 -14 6 -6 3 7 2 16 -1 19 -3 4 -6 -2 -5 -13z"/>
<path d="M4595 6379 c-10 -15 3 -25 16 -12 7 7 7 13 1 17 -6 3 -14 1 -17 -5z"/>
<path d="M4550 6360 c0 -5 7 -10 16 -10 8 0 12 5 9 10 -3 6 -10 10 -16 10 -5
0 -9 -4 -9 -10z"/>
<path d="M4842 6330 c0 -19 2 -27 5 -17 2 9 2 25 0 35 -3 9 -5 1 -5 -18z"/>
<path d="M4390 6310 c0 -5 7 -10 16 -10 8 0 12 5 9 10 -3 6 -10 10 -16 10 -5
0 -9 -4 -9 -10z"/>
<path d="M1623 6270 c0 -25 2 -35 4 -22 2 12 2 32 0 45 -2 12 -4 2 -4 -23z"/>
<path d="M4336 6302 c-3 -6 -1 -14 5 -17 15 -10 25 3 12 16 -7 7 -13 7 -17 1z"/>
<path d="M4782 6280 c0 -19 2 -27 5 -17 2 9 2 25 0 35 -3 9 -5 1 -5 -18z"/>
<path d="M1682 6270 c0 -14 2 -19 5 -12 2 6 2 18 0 25 -3 6 -5 1 -5 -13z"/>
<path d="M6662 6260 c0 -19 2 -27 5 -17 2 9 2 25 0 35 -3 9 -5 1 -5 -18z"/>
<path d="M4265 6270 c-19 -8 -19 -9 3 -9 12 -1 22 4 22 9 0 6 -1 10 -2 9 -2 0
-12 -4 -23 -9z"/>
<path d="M6690 6250 c0 -16 5 -30 10 -30 6 0 10 14 10 30 0 17 -4 30 -10 30
-5 0 -10 -13 -10 -30z"/>
<path d="M6620 6256 c0 -9 7 -16 16 -16 9 0 14 5 12 12 -6 18 -28 21 -28 4z"/>
<path d="M6760 6241 c0 -16 5 -33 10 -36 6 -4 10 6 10 24 0 16 -4 33 -10 36
-6 4 -10 -6 -10 -24z"/>
<path d="M1643 6225 c0 -22 2 -30 4 -17 2 12 2 30 0 40 -3 9 -5 -1 -4 -23z"/>
<path d="M6242 6214 c3 -3 25 -7 49 -8 35 -3 49 -10 72 -37 16 -19 24 -24 18
-12 -19 38 -61 63 -104 63 -22 0 -38 -3 -35 -6z"/>
<path d="M7821 6184 c0 -11 3 -14 6 -6 3 7 2 16 -1 19 -3 4 -6 -2 -5 -13z"/>
<path d="M2677 6123 c18 -70 20 -72 97 -124 l61 -42 -34 36 c-18 20 -46 41
-61 47 -29 12 -43 38 -55 97 -4 18 -10 35 -15 38 -4 3 -1 -21 7 -52z"/>
<path d="M4662 6160 c0 -14 2 -19 5 -12 2 6 2 18 0 25 -3 6 -5 1 -5 -13z"/>
<path d="M1320 6147 c0 -2 15 -16 32 -33 30 -27 31 -27 9 -2 l-24 27 69 4 69
3 -77 2 c-43 1 -78 1 -78 -1z"/>
<path d="M9019 6143 l113 -4 -18 -22 -19 -22 23 19 c12 11 22 23 22 28 0 4
-53 7 -117 6 l-118 -2 114 -3z"/>
<path d="M4501 6104 c0 -11 3 -14 6 -6 3 7 2 16 -1 19 -3 4 -6 -2 -5 -13z"/>
<path d="M4483 6055 c0 -33 2 -45 4 -27 2 18 2 45 0 60 -2 15 -4 0 -4 -33z"/>
<path d="M5901 6094 c0 -11 3 -14 6 -6 3 7 2 16 -1 19 -3 4 -6 -2 -5 -13z"/>
<path d="M6722 6080 c0 -19 2 -27 5 -17 2 9 2 25 0 35 -3 9 -5 1 -5 -18z"/>
<path d="M4531 6068 c-1 -15 3 -29 8 -33 13 -7 26 16 14 24 -6 3 -13 13 -16
21 -3 9 -6 4 -6 -12z"/>
<path d="M6508 6011 c71 -72 107 -101 129 -101 4 0 -10 12 -33 28 -22 15 -67
55 -99 90 -31 34 -61 62 -66 62 -4 0 27 -35 69 -79z"/>
<path d="M4570 6066 c0 -8 5 -18 10 -21 6 -3 10 3 10 14 0 12 -4 21 -10 21 -5
0 -10 -6 -10 -14z"/>
<path d="M4431 6054 c0 -11 3 -14 6 -6 3 7 2 16 -1 19 -3 4 -6 -2 -5 -13z"/>
<path d="M3320 6037 c0 -12 23 -57 30 -57 3 0 26 -17 51 -37 39 -32 37 -29
-16 28 -33 35 -61 65 -62 68 -2 2 -3 2 -3 -2z"/>
<path d="M4462 6015 c0 -16 2 -22 5 -12 2 9 2 23 0 30 -3 6 -5 -1 -5 -18z"/>
<path d="M5170 6009 c-7 -11 -10 -23 -7 -25 2 -2 9 7 15 21 14 30 7 33 -8 4z"/>
<path d="M4442 6000 c0 -14 2 -19 5 -12 2 6 2 18 0 25 -3 6 -5 1 -5 -13z"/>
<path d="M8101 5975 c-2 -32 -4 -36 -11 -20 -8 19 -9 19 -9 -2 -1 -26 17 -40
25 -20 3 8 4 30 1 49 -4 32 -4 32 -6 -7z"/>
<path d="M4292 5970 c0 -19 2 -27 5 -17 2 9 2 25 0 35 -3 9 -5 1 -5 -18z"/>
<path d="M4311 5984 c0 -11 3 -14 6 -6 3 7 2 16 -1 19 -3 4 -6 -2 -5 -13z"/>
<path d="M5302 5970 c-24 -15 -67 -50 -95 -77 -29 -27 -68 -61 -87 -77 l-35
-28 32 19 c18 10 65 47 105 81 40 34 87 73 103 86 39 33 31 31 -23 -4z"/>
<path d="M5703 5935 c0 -22 2 -30 4 -17 2 12 2 30 0 40 -3 9 -5 -1 -4 -23z"/>
<path d="M8031 5943 c-1 -17 4 -35 9 -38 11 -7 11 9 0 45 -8 24 -8 24 -9 -7z"/>
<path d="M7990 5931 c0 -21 5 -31 15 -31 8 0 15 7 15 16 0 8 -7 22 -15 30 -13
14 -15 12 -15 -15z"/>
<path d="M5741 5934 c0 -11 3 -14 6 -6 3 7 2 16 -1 19 -3 4 -6 -2 -5 -13z"/>
<path d="M8062 5930 c0 -14 2 -19 5 -12 2 6 2 18 0 25 -3 6 -5 1 -5 -13z"/>
<path d="M5672 5920 c0 -14 2 -19 5 -12 2 6 2 18 0 25 -3 6 -5 1 -5 -13z"/>
<path d="M5721 5924 c0 -11 3 -14 6 -6 3 7 2 16 -1 19 -3 4 -6 -2 -5 -13z"/>
<path d="M7962 5910 c0 -19 2 -27 5 -17 2 9 2 25 0 35 -3 9 -5 1 -5 -18z"/>
<path d="M7920 5903 c0 -14 6 -23 15 -23 9 0 15 9 15 23 0 14 -6 24 -15 24 -9
0 -15 -10 -15 -24z"/>
<path d="M7782 5880 c0 -19 2 -27 5 -17 2 9 2 25 0 35 -3 9 -5 1 -5 -18z"/>
<path d="M7860 5898 c0 -9 5 -20 10 -23 13 -8 13 5 0 25 -8 13 -10 13 -10 -2z"/>
<path d="M7811 5884 c0 -11 3 -14 6 -6 3 7 2 16 -1 19 -3 4 -6 -2 -5 -13z"/>
<path d="M3495 5868 c17 -12 40 -33 53 -45 12 -12 22 -19 22 -14 0 11 -52 57
-80 70 -21 10 -20 9 5 -11z"/>
<path d="M5032 5853 c-25 -9 -67 -38 -100 -70 l-57 -55 60 49 c33 28 76 56 95
63 19 7 39 17 45 22 11 10 9 10 -43 -9z"/>
<path d="M2990 5816 c45 -47 57 -56 44 -33 -13 23 -49 59 -69 69 -11 6 0 -10
25 -36z"/>
<path d="M6058 5835 c-3 -11 -9 -29 -13 -40 -3 -11 1 -7 10 8 9 16 15 33 12
40 -2 6 -6 3 -9 -8z"/>
<path d="M5040 5780 c-21 -7 -21 -8 -5 -9 11 0 27 4 35 9 18 11 5 11 -30 0z"/>
<path d="M6820 5734 c25 -27 61 -68 79 -91 19 -24 36 -41 38 -39 7 7 -114 150
-139 165 -13 8 -3 -8 22 -35z"/>
<path d="M3090 5716 c0 -8 42 -46 63 -57 29 -16 19 -2 -23 31 -22 17 -40 29
-40 26z"/>
<path d="M5909 5673 l-34 -38 35 30 c19 16 39 33 45 37 5 5 5 8 -1 8 -6 0 -26
-17 -45 -37z"/>
<path d="M5362 5670 c0 -14 2 -19 5 -12 2 6 2 18 0 25 -3 6 -5 1 -5 -13z"/>
<path d="M5391 5674 c0 -11 3 -14 6 -6 3 7 2 16 -1 19 -3 4 -6 -2 -5 -13z"/>
<path d="M5411 5674 c0 -11 3 -14 6 -6 3 7 2 16 -1 19 -3 4 -6 -2 -5 -13z"/>
<path d="M5320 5660 c0 -11 5 -20 10 -20 6 0 10 9 10 20 0 11 -4 20 -10 20 -5
0 -10 -9 -10 -20z"/>
<path d="M5270 5655 c0 -8 4 -15 10 -15 5 0 7 7 4 15 -4 8 -8 15 -10 15 -2 0
-4 -7 -4 -15z"/>
<path d="M5470 5655 c0 -9 6 -12 15 -9 8 4 12 10 9 15 -8 14 -24 10 -24 -6z"/>
<path d="M5251 5644 c0 -11 3 -14 6 -6 3 7 2 16 -1 19 -3 4 -6 -2 -5 -13z"/>
<path d="M8111 5644 c0 -11 3 -14 6 -6 3 7 2 16 -1 19 -3 4 -6 -2 -5 -13z"/>
<path d="M8203 5620 c0 -25 2 -35 4 -22 2 12 2 32 0 45 -2 12 -4 2 -4 -23z"/>
<path d="M8231 5644 c0 -11 3 -14 6 -6 3 7 2 16 -1 19 -3 4 -6 -2 -5 -13z"/>
<path d="M5221 5634 c0 -11 3 -14 6 -6 3 7 2 16 -1 19 -3 4 -6 -2 -5 -13z"/>
<path d="M8171 5624 c0 -11 3 -14 6 -6 3 7 2 16 -1 19 -3 4 -6 -2 -5 -13z"/>
<path d="M6710 5611 c5 -11 15 -23 21 -27 6 -3 3 5 -6 20 -20 30 -30 35 -15 7z"/>
<path d="M8262 5600 c0 -14 2 -19 5 -12 2 6 2 18 0 25 -3 6 -5 1 -5 -13z"/>
<path d="M8281 5584 c0 -11 3 -14 6 -6 3 7 2 16 -1 19 -3 4 -6 -2 -5 -13z"/>
<path d="M8341 5584 c0 -11 3 -14 6 -6 3 7 2 16 -1 19 -3 4 -6 -2 -5 -13z"/>
<path d="M5761 5552 c-25 -15 -85 -67 -135 -116 -50 -49 -77 -79 -61 -68 17
11 55 46 85 77 30 31 79 72 108 91 28 18 52 36 52 39 0 7 -1 7 -49 -23z"/>
<path d="M8390 5555 c7 -9 15 -13 17 -11 7 7 -7 26 -19 26 -6 0 -6 -6 2 -15z"/>
<path d="M6780 5536 c0 -8 101 -58 107 -53 2 3 -17 16 -44 28 -26 13 -51 25
-55 27 -5 2 -8 1 -8 -2z"/>
<path d="M6994 5438 c10 -7 40 -28 65 -47 41 -30 43 -31 21 -6 -14 15 -43 36
-65 46 -22 11 -31 14 -21 7z"/>
<path d="M3021 5288 c-5 -13 -41 -108 -81 -213 -71 -187 -93 -225 -131 -225
-10 0 -19 -6 -19 -12 0 -10 25 -13 90 -13 62 0 90 4 90 12 0 6 -14 14 -31 18
-28 6 -30 10 -25 35 3 16 12 45 20 64 l15 36 73 0 73 0 23 -58 c12 -32 22 -61
22 -64 0 -4 -16 -10 -35 -14 -68 -12 -29 -25 88 -27 83 -1 117 1 117 10 0 6
-13 16 -28 21 -23 8 -35 24 -55 73 -15 35 -56 134 -91 219 -51 125 -68 156
-85 158 -14 2 -24 -4 -30 -20z m33 -193 l24 -60 -50 -3 c-28 -2 -52 -1 -55 2
-3 3 5 34 18 70 13 36 27 62 31 58 4 -4 19 -34 32 -67z"/>
<path d="M3639 5283 c-102 -52 -154 -162 -129 -276 25 -116 101 -177 231 -185
88 -5 158 3 183 21 9 7 20 33 25 60 7 42 6 47 -10 47 -9 0 -26 -11 -37 -24
-32 -41 -92 -76 -131 -76 -95 0 -151 74 -151 199 0 96 13 142 51 186 55 63
147 54 219 -20 45 -47 64 -46 55 1 -16 88 -27 94 -176 94 -63 0 -85 -5 -130
-27z"/>
<path d="M4355 5238 c-132 -348 -144 -375 -176 -384 -17 -5 -31 -13 -32 -18
-3 -13 177 -10 181 3 2 6 -5 11 -15 11 -11 0 -27 6 -36 13 -16 11 -16 15 1 67
l19 55 74 3 75 3 22 -53 c28 -69 28 -73 -9 -84 -17 -5 -30 -13 -30 -17 1 -9
228 -13 237 -4 4 4 -9 13 -28 21 -32 14 -39 25 -88 148 -110 272 -125 303
-147 306 -18 3 -25 -8 -48 -70z m49 -137 c14 -36 26 -66 26 -68 0 -2 -25 -3
-55 -3 -30 0 -55 4 -55 9 0 5 7 26 16 47 9 22 20 50 25 63 12 29 11 30 43 -48z"/>
<path d="M4945 5305 c-5 -2 -31 -6 -57 -10 -62 -8 -68 -35 -8 -35 l40 0 0
-189 c0 -202 0 -202 -53 -215 -16 -4 -27 -12 -25 -18 3 -8 62 -11 189 -11 168
0 188 2 226 21 187 96 154 386 -51 447 -44 13 -231 20 -261 10z m208 -39 c82
-30 117 -91 117 -206 0 -133 -52 -200 -153 -200 -38 0 -53 5 -72 25 -25 24
-25 26 -25 204 0 163 2 180 18 184 33 9 77 6 115 -7z"/>
<path d="M5600 5284 c0 -9 11 -14 35 -14 20 0 37 -6 40 -12 2 -7 6 -95 8 -196
6 -201 3 -212 -54 -212 -16 0 -29 -5 -29 -12 0 -10 54 -13 234 -14 266 -1 237
-12 251 89 6 39 5 47 -9 47 -9 0 -16 -6 -16 -13 0 -7 -13 -28 -29 -47 l-29
-35 -103 0 -104 0 -3 93 -3 93 78 -3 77 -3 9 -38 c5 -21 14 -36 21 -34 6 2 11
9 10 15 -1 7 -2 48 -2 92 -2 85 -13 102 -32 46 -12 -37 -35 -46 -116 -46 l-44
0 0 95 0 95 83 0 c108 0 120 -5 146 -51 12 -21 26 -39 32 -39 5 0 9 27 9 60
l0 60 -230 -1 c-192 0 -230 -3 -230 -15z"/>
<path d="M6322 5288 c2 -6 19 -16 38 -21 l33 -8 -6 -183 c-3 -100 -9 -190 -13
-199 -3 -10 -19 -21 -35 -24 -16 -3 -29 -11 -29 -17 0 -7 31 -11 90 -12 97 -1
114 10 57 36 l-32 15 -3 158 c-1 92 1 156 6 153 12 -7 162 -337 162 -355 0 -7
7 -11 15 -9 9 2 30 38 48 83 49 118 120 279 128 288 7 10 23 -262 18 -303 -3
-18 -13 -27 -36 -34 -57 -16 -36 -26 56 -26 49 0 103 -3 120 -6 43 -9 42 20
-1 32 -32 9 -33 11 -39 79 -4 39 -8 126 -10 195 l-4 125 35 11 c64 21 48 34
-44 34 -80 0 -87 -2 -96 -22 -75 -176 -130 -293 -136 -293 -5 0 -40 70 -80
155 l-71 155 -87 3 c-67 2 -87 0 -84 -10z"/>
<path d="M7150 5292 c0 -5 11 -14 24 -20 14 -6 58 -62 102 -129 74 -112 78
-122 84 -188 4 -38 5 -76 2 -82 -2 -7 -19 -15 -38 -19 -19 -3 -34 -11 -34 -18
0 -8 38 -11 125 -11 95 0 125 3 125 12 0 7 -9 13 -19 13 -47 0 -51 8 -51 101
l0 88 76 111 c51 75 83 112 100 116 13 3 24 12 24 20 0 11 -18 14 -76 14 -55
0 -75 -3 -72 -12 3 -7 15 -15 29 -19 14 -3 23 -12 21 -20 -4 -17 -109 -176
-121 -184 -5 -2 -36 39 -70 93 -65 103 -65 98 -8 116 10 3 16 10 13 15 -7 11
-236 14 -236 3z"/>
</g>
</svg>
